<?xml version="1.0" standalone="no"?>
<!DOCTYPE svg PUBLIC "-//W3C//DTD SVG 20010904//EN"
 "http://www.w3.org/TR/2001/REC-SVG-20010904/DTD/svg10.dtd">
<svg version="1.0" xmlns="http://www.w3.org/2000/svg"
 width="700.000000pt" height="700.000000pt" viewBox="0 0 700.000000 700.000000"
 preserveAspectRatio="xMidYMid meet">
<metadata>
Created by potrace 1.11, written by Peter Selinger 2001-2013
</metadata>
<g transform="translate(0.000000,700.000000) scale(0.100000,-0.100000)"
fill="#000000" stroke="none">
<path d="M3319 6367 c6 -8 7 -18 3 -22 -4 -5 -1 -5 6 -1 10 6 10 11 1 22 -6 8
-14 14 -16 14 -3 0 0 -6 6 -13z"/>
<path d="M3379 6373 c-1 -4 -1 -11 0 -15 0 -5 -3 -8 -9 -8 -5 0 -10 6 -11 13
0 6 -4 2 -9 -10 -5 -13 -17 -23 -27 -23 -14 0 -15 -2 -5 -9 10 -6 8 -10 -8
-14 -12 -3 -19 -10 -16 -16 4 -5 -1 -14 -10 -19 -11 -6 -13 -11 -5 -16 6 -4
11 -2 11 4 0 6 5 8 11 5 7 -5 5 -13 -5 -24 -13 -14 -13 -19 6 -41 11 -14 17
-19 13 -13 -4 9 -1 11 9 7 9 -3 14 -10 11 -14 -3 -4 9 -13 26 -20 26 -11 32
-11 40 1 6 10 9 10 9 2 0 -7 5 -13 11 -13 5 0 7 6 3 13 -4 6 6 1 22 -13 l29
-25 -20 24 c-18 22 -18 24 -2 18 13 -5 16 -3 10 6 -11 18 -13 38 -2 31 5 -3 7
-9 4 -14 -8 -13 20 -19 36 -8 11 8 10 9 -3 4 -12 -3 -18 0 -18 10 0 8 4 13 9
10 5 -3 15 2 22 12 13 15 12 16 -3 3 -13 -9 -18 -10 -18 -2 0 7 -5 9 -12 5 -7
-4 -8 -3 -4 5 4 6 11 9 16 6 4 -3 16 8 25 23 l18 27 -21 -19 c-12 -11 -22 -14
-22 -8 0 6 5 14 10 17 6 3 10 11 10 17 0 6 -10 3 -22 -8 l-21 -19 18 28 c19
30 17 37 -12 41 -10 2 -16 7 -13 12 3 5 9 8 13 6 5 -1 5 2 2 8 -5 8 -13 6 -25
-5 -11 -10 -20 -12 -24 -6 -4 6 -14 7 -23 4 -10 -4 -14 -2 -9 5 3 6 2 13 -4
17 -5 3 -11 3 -11 -2z m76 -53 c3 -6 -1 -7 -9 -4 -18 7 -21 14 -7 14 6 0 13
-4 16 -10z m30 1 c3 -5 2 -12 -3 -15 -5 -3 -9 1 -9 9 0 17 3 19 12 6z m-165
-105 c-7 -7 -14 -6 -21 1 -9 9 -7 12 9 10 14 -1 18 -5 12 -11z"/>
<path d="M3435 6369 c-4 -6 -5 -12 -2 -15 2 -3 7 2 10 11 7 17 1 20 -8 4z"/>
<path d="M3279 6313 c-13 -16 -12 -17 4 -4 9 7 17 15 17 17 0 8 -8 3 -21 -13z"/>
<path d="M3793 6159 c-6 -6 -17 -11 -24 -12 -28 -5 -41 -18 -29 -32 8 -10 8
-15 -1 -21 -8 -5 -9 -3 -4 6 6 9 2 10 -15 5 -15 -5 -20 -3 -16 3 3 6 3 13 -2
16 -4 2 -8 -6 -8 -19 0 -13 4 -21 8 -19 4 3 8 0 8 -6 0 -8 -10 -10 -27 -6 -23
5 -25 4 -10 -4 19 -12 23 -40 6 -40 -5 0 -7 5 -4 10 3 6 2 10 -3 10 -5 0 -9
-14 -8 -30 1 -17 6 -28 12 -26 6 2 11 -2 11 -10 0 -8 -6 -13 -13 -10 -8 3 -11
0 -7 -10 5 -14 18 -18 38 -14 5 1 7 -2 3 -6 -4 -4 0 -14 10 -22 13 -11 12 -11
-9 1 -21 13 -26 13 -26 2 0 -8 4 -12 9 -9 4 3 11 -2 14 -10 3 -9 10 -13 15
-10 9 5 13 -11 9 -31 -1 -5 2 -7 6 -3 4 4 13 3 21 -3 7 -6 13 -8 13 -4 0 4 6
2 14 -4 12 -10 14 -8 12 12 -2 13 2 24 9 24 7 0 11 -11 9 -23 -2 -24 15 -24
45 0 8 6 17 10 20 8 3 -2 7 2 9 10 2 9 0 8 -8 -2 -10 -13 -11 -13 -7 0 2 9 14
14 30 13 22 -2 25 0 14 11 -6 8 -16 11 -22 8 -6 -3 -6 -1 -2 4 5 5 12 8 15 7
4 0 15 3 25 8 14 8 15 14 6 32 l-12 22 24 -20 c13 -11 21 -16 17 -11 -4 5 -2
16 5 25 10 14 10 14 -4 3 -14 -10 -18 -10 -23 4 -9 23 -8 24 11 17 15 -6 16
-5 3 9 -8 9 -19 13 -25 10 -5 -3 -4 2 4 11 9 11 10 17 2 17 -6 0 -10 6 -8 13
1 6 -5 11 -13 9 -10 -2 -7 4 8 18 30 28 28 34 -4 13 -26 -17 -27 -17 -20 7 6
19 5 21 -3 10 -8 -12 -11 -12 -11 -1 0 10 -3 11 -13 2 -14 -11 -27 -5 -27 13
0 6 5 4 10 -4 8 -13 10 -13 10 2 0 17 -33 20 -57 5 -6 -4 -14 -3 -17 2 -4 5 0
11 6 14 7 2 10 7 7 10 -3 4 -10 2 -16 -4z m-3 -28 c0 -4 -11 -7 -24 -7 -14 0
-23 3 -21 6 5 9 45 10 45 1z m-9 -258 c9 -9 7 -11 -5 -9 -9 1 -21 7 -27 13 -9
9 -7 11 5 9 9 -1 21 -7 27 -13z m73 -5 c-3 -4 -9 -8 -15 -8 -5 0 -9 4 -9 8 0
5 7 9 15 9 8 0 12 -4 9 -9z"/>
<path d="M3647 5939 c7 -7 15 -10 18 -7 3 3 -2 9 -12 12 -14 6 -15 5 -6 -5z"/>
<path d="M3453 5835 c0 -8 4 -12 9 -9 4 3 8 0 8 -7 0 -8 5 -7 17 2 15 13 15
12 2 -8 -7 -12 -16 -19 -19 -15 -3 4 -11 8 -18 10 -10 2 -11 -4 -6 -20 6 -20
5 -21 -9 -10 -10 9 -17 10 -22 2 -4 -6 -1 -9 7 -8 8 2 12 -5 10 -17 -2 -17 -1
-18 8 -5 10 12 11 12 7 -6 -2 -12 6 -32 20 -50 18 -21 22 -23 14 -6 -8 14 -8
22 -1 22 5 0 10 -4 10 -10 0 -5 8 -10 18 -10 14 0 15 2 2 10 -9 6 -10 10 -3
10 6 0 15 -4 18 -10 3 -5 11 -10 17 -10 6 0 6 6 -2 15 -11 14 -10 14 11 6 21
-7 25 -6 25 10 0 13 -4 15 -12 8 -8 -7 -14 -6 -19 1 -4 6 -1 9 7 8 7 -2 12 3
10 11 -2 11 4 10 25 -4 28 -18 28 -18 11 2 -14 15 -15 22 -5 32 10 11 8 11
-12 1 -13 -7 -21 -7 -17 -2 3 6 2 14 -4 17 -6 4 -10 16 -8 27 3 24 -25 33 -54
17 -13 -7 -23 -7 -32 0 -9 8 -13 7 -13 -4z m89 -14 c-4 -10 -7 -11 -10 -3 -2
7 -8 10 -13 6 -5 -3 -9 -1 -9 5 0 5 9 9 19 8 12 -1 17 -6 13 -16z m-72 -101
c0 -5 -2 -10 -4 -10 -3 0 -8 5 -11 10 -3 6 -1 10 4 10 6 0 11 -4 11 -10z"/>
<path d="M3567 5815 c-4 -8 -3 -16 1 -19 4 -3 9 4 9 15 2 23 -3 25 -10 4z"/>
<path d="M3011 5624 c-98 -20 -183 -87 -224 -178 -29 -62 -31 -177 -5 -246 30
-78 107 -151 192 -181 57 -21 65 -27 70 -54 19 -106 27 -255 28 -505 0 -262
-3 -332 -17 -430 -2 -19 -7 -55 -11 -80 -3 -25 -7 -49 -8 -55 -2 -5 -6 -28
-11 -50 -36 -185 -72 -271 -225 -540 -149 -261 -339 -600 -412 -735 -20 -36
-65 -119 -101 -185 -229 -423 -400 -779 -462 -960 -34 -102 -37 -209 -9 -358
7 -37 49 -108 88 -148 54 -55 157 -102 286 -131 l105 -23 1230 -2 c761 -1
1261 2 1310 8 276 35 429 126 477 283 26 89 29 263 5 341 -46 152 -184 448
-395 845 -61 116 -316 582 -352 645 -13 22 -37 65 -53 95 -17 30 -92 163 -167
295 -75 132 -151 275 -168 318 -34 84 -87 288 -97 376 -4 30 -9 63 -12 75 -10
39 -11 691 -1 786 17 165 15 161 86 188 126 48 202 148 210 278 7 117 -37 215
-125 275 -91 63 -78 62 -651 63 -370 1 -540 -2 -581 -10z m1108 -230 c74 -62
36 -170 -63 -180 -136 -13 -183 -118 -203 -449 -12 -214 -6 -666 11 -750 2
-11 7 -47 11 -80 3 -33 11 -80 17 -105 5 -25 12 -58 15 -75 16 -103 124 -371
184 -457 11 -14 19 -29 19 -33 0 -4 14 -31 32 -59 17 -28 42 -71 56 -96 14
-25 63 -112 110 -195 343 -605 650 -1195 760 -1460 43 -103 46 -117 49 -211 2
-83 -1 -107 -18 -140 -26 -55 -102 -92 -221 -109 -21 -3 -55 -8 -75 -12 -73
-12 -2360 -10 -2474 3 -177 20 -267 56 -299 119 -9 20 -14 63 -15 130 0 93 3
106 38 195 73 179 352 730 547 1080 26 47 62 112 80 145 77 140 180 323 290
515 143 250 153 269 191 373 32 86 76 247 85 307 3 19 7 46 9 60 25 146 32
277 29 590 -3 288 -5 331 -19 440 -25 187 -72 257 -183 274 -59 9 -90 31 -102
74 -12 44 11 100 50 119 19 10 150 13 542 13 l516 0 31 -26z"/>
<path d="M3735 5320 c-3 -11 -3 -25 0 -32 4 -7 -1 -4 -11 7 -16 20 -16 20 -11
-2 5 -23 -14 -48 -27 -36 -4 4 -4 0 0 -10 5 -13 10 -15 19 -7 10 8 15 8 21 -1
4 -7 3 -9 -3 -6 -6 4 -16 1 -22 -7 -9 -10 -7 -19 9 -37 10 -13 19 -20 20 -15
0 5 10 1 22 -10 14 -12 18 -13 10 -3 -6 9 -8 20 -4 24 4 5 1 5 -7 0 -10 -6
-12 -4 -7 4 5 7 11 10 14 7 3 -3 12 0 21 7 14 11 14 10 2 -6 -12 -15 -12 -20
-1 -30 7 -7 10 -7 7 -1 -3 6 3 18 14 27 23 20 33 22 23 5 -5 -9 -2 -9 9 1 18
14 23 26 8 16 -5 -3 -12 -1 -15 4 -7 11 22 23 37 15 7 -3 4 1 -5 9 -10 8 -14
17 -10 21 4 4 3 7 -3 6 -24 -5 -35 1 -35 20 0 11 -7 20 -16 20 -9 0 -13 5 -9
13 4 6 -2 2 -13 -10 -17 -19 -21 -20 -26 -7 -3 8 -2 12 4 9 6 -3 7 1 4 9 -8
21 -11 20 -19 -4z m51 -36 c1 -9 0 -13 -4 -10 -3 4 -7 14 -8 22 -1 9 0 13 4
10 3 -4 7 -14 8 -22z m48 -32 c3 -5 -1 -9 -9 -9 -8 0 -12 4 -9 9 3 4 7 8 9 8
2 0 6 -4 9 -8z m-114 -52 c6 -11 8 -20 6 -20 -3 0 -10 9 -16 20 -6 11 -8 20
-6 20 3 0 10 -9 16 -20z"/>
<path d="M3834 5302 c3 -5 0 -13 -6 -15 -9 -4 -10 -6 -1 -6 17 -1 25 16 12 25
-7 4 -9 3 -5 -4z"/>
<path d="M3680 5280 c8 -5 20 -10 25 -10 6 0 3 5 -5 10 -8 5 -19 10 -25 10 -5
0 -3 -5 5 -10z"/>
<path d="M3435 5070 c-3 -5 -1 -18 5 -29 14 -28 12 -38 -4 -16 -16 22 -43 28
-43 9 0 -7 4 -11 9 -8 4 3 8 0 8 -6 0 -6 4 -9 9 -6 11 7 8 -21 -4 -31 -4 -4
-5 -3 -1 4 3 6 2 14 -4 18 -5 3 -10 3 -11 -2 0 -4 -2 -17 -4 -27 -4 -22 18
-60 28 -49 4 3 7 -1 7 -10 0 -9 5 -17 10 -17 6 0 9 3 8 8 -2 4 1 7 7 7 5 0 8
-7 7 -14 -3 -13 -1 -13 12 -2 11 9 16 10 16 2 0 -6 5 -11 12 -11 9 0 9 3 0 12
-15 15 -15 28 -1 28 12 0 48 40 49 54 0 6 -6 2 -12 -7 -12 -15 -15 -15 -33 -1
-20 16 -20 16 3 9 27 -8 30 11 2 20 -11 3 -20 11 -20 16 0 5 -8 9 -17 10 -12
0 -13 2 -5 6 7 3 19 -1 27 -7 12 -10 15 -10 15 2 0 11 -10 15 -32 15 -25 -1
-33 3 -32 16 2 19 -2 22 -11 7z m-11 -116 c3 -8 2 -12 -4 -9 -6 3 -10 10 -10
16 0 14 7 11 14 -7z"/>
<path d="M3518 5013 c7 -3 16 -2 19 1 4 3 -2 6 -13 5 -11 0 -14 -3 -6 -6z"/>
<path d="M3356 4982 c-3 -4 4 -9 15 -9 23 -2 25 3 4 10 -8 4 -16 3 -19 -1z"/>
<path d="M3376 4945 c4 -8 11 -15 16 -15 6 0 5 6 -2 15 -7 8 -14 15 -16 15 -2
0 -1 -7 2 -15z"/>
<path d="M3530 4939 c0 -5 5 -7 10 -4 6 3 10 8 10 11 0 2 -4 4 -10 4 -5 0 -10
-5 -10 -11z"/>
<path d="M3396 4898 c3 -5 10 -6 15 -3 13 9 11 12 -6 12 -8 0 -12 -4 -9 -9z"/>
<path d="M3624 4678 c-5 -8 -3 -9 15 -12 5 0 13 -4 16 -8 4 -4 -5 -5 -20 -2
-20 3 -25 1 -19 -8 6 -10 5 -11 -8 -1 -16 14 -28 8 -28 -13 0 -8 7 -11 18 -7
9 3 2 -6 -16 -19 -26 -20 -29 -27 -17 -32 9 -3 13 -2 10 4 -3 6 -1 10 5 10 7
0 10 -6 7 -12 -2 -7 -11 -12 -20 -10 -16 3 -17 -13 -4 -36 5 -7 13 -10 18 -6
6 3 10 0 8 -7 -1 -8 -1 -21 0 -29 1 -12 4 -12 12 3 5 9 15 17 21 17 9 0 9 -3
0 -12 -7 -7 -12 -17 -12 -22 0 -6 5 -4 10 4 6 9 10 11 10 3 0 -7 7 -10 17 -6
10 4 14 2 9 -5 -3 -6 -2 -14 4 -17 6 -4 9 -1 8 6 -2 6 3 14 11 17 10 3 11 0 5
-9 -7 -12 -5 -12 9 0 9 7 24 10 33 7 14 -5 15 -4 4 9 -9 11 -16 12 -25 5 -10
-8 -15 -8 -21 1 -4 7 -3 9 4 5 6 -3 13 -2 17 4 4 6 11 7 17 4 7 -5 9 -1 5 9
-3 8 0 20 7 26 9 8 13 7 13 -4 0 -8 -5 -11 -11 -8 -6 3 -7 2 -3 -2 11 -12 37
-15 37 -4 0 5 -5 9 -11 9 -5 0 -8 4 -4 9 3 6 -2 14 -11 19 -15 8 -15 10 0 15
11 5 15 3 10 -5 -4 -6 -3 -8 4 -5 12 8 4 47 -10 47 -5 0 -6 -4 -3 -10 3 -5 1
-10 -4 -10 -6 0 -11 4 -11 9 0 11 25 32 32 26 2 -3 5 2 5 10 0 8 -4 15 -9 15
-4 0 -8 -4 -8 -10 0 -17 -26 -11 -44 9 -13 15 -14 20 -4 24 7 4 -2 4 -20 1
-19 -2 -31 -1 -28 4 3 5 -2 9 -10 9 -8 0 -17 -4 -20 -9z m59 -23 c4 -8 3 -16
-1 -19 -4 -3 -9 4 -9 15 -2 23 3 25 10 4z m-93 -109 c0 -11 -19 -15 -25 -6 -3
5 1 10 9 10 9 0 16 -2 16 -4z"/>
<path d="M3716 4648 c3 -5 10 -6 15 -3 13 9 11 12 -6 12 -8 0 -12 -4 -9 -9z"/>
<path d="M3555 4620 c-3 -5 -1 -10 4 -10 6 0 11 5 11 10 0 6 -2 10 -4 10 -3 0
-8 -4 -11 -10z"/>
<path d="M3463 4058 c-3 -6 -1 -8 5 -4 5 3 13 0 15 -6 4 -10 6 -10 6 0 1 8 6
10 14 6 6 -4 8 -3 4 1 -12 13 -36 15 -44 3z"/>
<path d="M3436 4035 c-3 -9 -3 -22 1 -27 3 -6 2 -8 -4 -5 -6 4 -19 0 -29 -9
-18 -14 -18 -15 4 -9 13 4 22 2 22 -5 0 -6 -4 -9 -8 -6 -4 2 -14 0 -22 -5 -13
-8 -13 -10 0 -20 12 -9 11 -10 -7 -6 -13 3 -23 1 -23 -4 0 -5 6 -9 14 -9 20 0
29 -17 15 -26 -8 -4 -9 -3 -5 4 4 7 2 12 -3 12 -6 0 -9 -10 -7 -22 2 -13 -1
-29 -7 -36 -8 -10 -7 -12 4 -10 8 2 13 -2 12 -9 -2 -7 9 -10 30 -8 17 2 26 1
20 -2 -25 -9 -12 -23 16 -18 17 3 33 0 36 -5 5 -8 12 -7 23 2 15 11 15 11 4
-3 -10 -14 -10 -18 3 -23 9 -3 14 -2 11 2 -2 4 2 16 10 27 8 10 14 14 14 9 0
-6 7 -19 16 -30 8 -10 13 -13 9 -7 -3 7 -8 23 -10 35 -4 21 -3 22 9 5 12 -15
15 -16 26 -2 11 13 10 14 -2 10 -9 -4 -15 0 -15 8 0 10 10 13 31 11 22 -3 27
-1 16 5 -8 6 -17 8 -21 5 -4 -2 -12 3 -18 10 -9 11 -9 16 0 22 7 4 9 3 5 -4
-3 -6 -2 -13 4 -17 5 -3 10 -3 11 2 0 4 2 16 4 26 2 9 -2 17 -8 17 -9 0 -9 2
0 8 6 4 13 16 15 27 2 14 -3 20 -16 20 -15 0 -20 7 -21 28 -1 15 -6 31 -10 35
-5 4 -5 -1 -2 -10 4 -10 2 -18 -3 -18 -9 0 -14 14 -11 33 0 4 -4 7 -10 7 -6 0
-9 -7 -6 -14 4 -10 1 -13 -8 -9 -8 3 -12 9 -9 14 6 11 -10 12 -20 2 -11 -11
-60 -11 -67 0 -3 5 -9 1 -13 -8z m29 -23 c-3 -3 -11 0 -18 7 -9 10 -8 11 6 5
10 -3 15 -9 12 -12z m-50 -132 c3 -5 1 -10 -6 -10 -8 0 -8 -5 2 -17 11 -15 11
-16 -1 -6 -16 15 -22 43 -10 43 5 0 12 -4 15 -10z"/>
<path d="M3607 4001 c-4 -17 -3 -21 5 -13 5 5 8 16 6 23 -3 8 -7 3 -11 -10z"/>
<path d="M3634 3904 c1 -13 5 -26 8 -29 4 -4 5 1 4 12 -2 10 0 23 5 29 5 6 4
11 -5 11 -7 0 -12 -10 -12 -23z"/>
<path d="M3450 3799 c0 -4 11 -6 25 -6 13 0 22 3 20 8 -6 9 -45 8 -45 -2z"/>
<path d="M3724 3508 c13 -20 14 -28 5 -34 -7 -4 -9 -3 -6 3 4 6 0 16 -7 22
-11 9 -16 9 -22 0 -4 -8 -3 -9 4 -5 7 4 12 1 12 -8 0 -8 -5 -18 -10 -21 -6 -4
-8 -10 -5 -15 3 -5 1 -12 -5 -15 -8 -5 -8 -11 0 -20 6 -7 7 -21 3 -30 -4 -11
-2 -16 4 -12 5 3 10 0 10 -8 0 -11 -3 -12 -14 -3 -10 8 -17 8 -26 -2 -9 -10
-9 -11 2 -5 8 4 17 2 21 -6 7 -10 12 -10 26 2 10 8 15 9 11 2 -5 -7 1 -16 13
-23 11 -6 20 -7 21 -3 0 4 5 -1 10 -12 l9 -20 -3 20 c-1 11 -7 20 -14 20 -6 0
-14 3 -18 7 -4 3 1 5 12 3 10 -2 24 -4 31 -4 7 -1 10 -6 6 -13 -4 -6 -3 -8 4
-4 5 3 13 0 16 -6 3 -7 3 -1 0 14 -5 24 -3 26 17 21 20 -6 21 -5 8 9 -7 9 -18
13 -24 10 -6 -3 -6 -1 -2 4 5 5 13 10 18 10 5 1 13 2 19 3 11 1 1 33 -14 43
-8 5 -7 8 1 8 7 0 16 -8 22 -17 9 -16 10 -16 8 4 0 12 -4 21 -7 21 -17 -1 -19
4 -9 23 8 15 8 19 0 15 -6 -4 -11 -1 -11 6 0 9 -3 9 -10 -2 -13 -20 -12 -39 1
-20 7 10 9 11 7 2 -6 -22 -23 -9 -22 16 1 12 -1 20 -4 17 -3 -3 -15 3 -26 12
-17 15 -18 15 -8 2 10 -14 10 -18 -4 -23 -21 -8 -24 -8 -24 5 0 5 4 7 10 4 6
-3 7 1 3 10 -4 13 -8 14 -14 4 -6 -10 -11 -10 -25 2 -17 13 -17 13 0 -13z m76
-22 c0 -2 -7 -7 -16 -10 -8 -3 -12 -2 -9 4 6 10 25 14 25 6z"/>
<path d="M3660 3487 c0 -2 6 -10 14 -16 11 -9 16 -9 22 1 4 7 4 10 -1 6 -4 -4
-14 -3 -22 3 -7 6 -13 9 -13 6z"/>
<path d="M3667 3444 c3 -7 0 -14 -6 -14 -6 0 -11 -4 -11 -10 0 -5 5 -9 11 -7
6 1 14 -4 17 -12 3 -9 0 -11 -8 -6 -9 6 -11 4 -5 -4 5 -9 10 -10 18 -2 8 8 8
14 -1 23 -8 8 -8 15 -2 24 7 8 6 13 -4 17 -10 4 -13 1 -9 -9z"/>
<path d="M3696 3318 c3 -5 10 -6 15 -3 13 9 11 12 -6 12 -8 0 -12 -4 -9 -9z"/>
<path d="M3375 3160 c-3 -5 -1 -10 4 -10 6 0 11 5 11 10 0 6 -2 10 -4 10 -3 0
-8 -4 -11 -10z"/>
<path d="M3306 3124 c1 -13 -3 -27 -8 -31 -6 -3 -8 -1 -5 4 4 6 -2 13 -13 16
-11 3 -23 0 -27 -5 -3 -6 -1 -8 5 -4 6 3 13 2 17 -4 3 -5 -1 -10 -11 -10 -13
0 -14 -3 -4 -15 17 -21 5 -19 -16 3 -15 15 -17 15 -12 1 4 -9 1 -22 -5 -29 -9
-9 -9 -11 -1 -7 7 4 15 0 18 -9 3 -8 11 -12 17 -8 8 5 9 3 4 -5 -5 -9 -10 -10
-18 -2 -6 6 -15 11 -21 11 -6 0 -5 -5 2 -12 19 -19 14 -32 -5 -17 -17 13 -17
13 -3 -6 8 -11 18 -22 21 -25 11 -9 33 -55 31 -63 -1 -5 2 -6 8 -2 5 3 10 1
10 -6 0 -7 3 -9 6 -6 4 4 1 13 -5 21 -8 10 -9 16 -1 21 5 3 11 4 11 1 3 -12 7
-26 9 -33 1 -5 1 -12 0 -18 -1 -5 2 -7 6 -3 4 4 14 2 22 -5 10 -8 9 -2 -4 18
-14 21 -15 27 -4 20 21 -13 39 -15 46 -4 3 5 12 5 23 0 13 -7 24 -1 51 27 19
20 28 31 18 24 -13 -11 -18 -11 -24 0 -4 7 -4 10 0 6 13 -11 49 29 42 47 -3 9
-10 14 -14 11 -5 -3 -9 1 -9 9 0 8 4 12 8 9 4 -2 11 1 15 7 5 8 3 9 -6 4 -10
-6 -12 -4 -7 7 8 23 -20 59 -40 51 -11 -4 -14 -3 -9 5 4 7 2 12 -4 12 -6 0 -8
5 -4 13 6 9 4 9 -7 1 -8 -6 -23 -10 -34 -7 -63 13 -72 11 -69 -13z m21 -6 c-3
-8 -6 -5 -6 6 -1 11 2 17 5 13 3 -3 4 -12 1 -19z m60 -3 c0 -8 -4 -12 -9 -9
-5 3 -6 10 -3 15 9 13 12 11 12 -6z m75 -50 c-4 -5 -8 -2 -10 8 -2 9 -8 17
-13 17 -6 0 -7 5 -4 11 5 6 12 4 20 -8 7 -10 10 -22 7 -28z m18 -63 c0 -5 -7
-9 -15 -9 -8 0 -12 4 -9 9 3 4 9 8 15 8 5 0 9 -4 9 -8z m-202 -57 c-3 -3 -9 2
-12 12 -6 14 -5 15 5 6 7 -7 10 -15 7 -18z"/>
<path d="M3275 3130 c3 -5 8 -10 11 -10 2 0 4 5 4 10 0 6 -5 10 -11 10 -5 0
-7 -4 -4 -10z"/>
<path d="M3375 2900 c-4 -6 -11 -8 -16 -5 -5 3 -6 -1 -2 -10 4 -12 8 -13 13
-5 4 7 13 10 19 6 7 -5 9 -1 5 8 -7 19 -11 20 -19 6z"/>
<path d="M3687 2693 c-229 -67 -304 -85 -372 -89 -87 -4 -120 4 -246 65 -75
37 -108 48 -135 45 -38 -3 -124 -40 -137 -58 -16 -24 -65 -110 -167 -296 -239
-436 -400 -757 -481 -955 -52 -129 -48 -254 9 -284 25 -13 117 -31 197 -39 98
-10 2366 -9 2442 1 34 4 72 10 85 13 13 3 34 7 47 10 65 13 90 48 92 129 1 61
-18 125 -79 260 -35 78 -269 547 -325 650 -23 44 -69 130 -102 190 -61 115
-71 133 -124 227 -36 64 -26 60 -256 117 -225 56 -296 58 -448 14z"/>
</g>
</svg>
