<?xml version="1.0" encoding="UTF-8" standalone="no"?>
<svg
   xmlns:dc="http://purl.org/dc/elements/1.1/"
   xmlns:cc="http://creativecommons.org/ns#"
   xmlns:rdf="http://www.w3.org/1999/02/22-rdf-syntax-ns#"
   xmlns:svg="http://www.w3.org/2000/svg"
   xmlns="http://www.w3.org/2000/svg"
   xmlns:sodipodi="http://sodipodi.sourceforge.net/DTD/sodipodi-0.dtd"
   xmlns:inkscape="http://www.inkscape.org/namespaces/inkscape"
   inkscape:version="1.0 (4035a4f, 2020-05-01)"
   sodipodi:docname="gitscan.svg"
   xml:space="preserve"
   enable-background="new 0 0 97 97"
   viewBox="0 0 97 97"
   height="97px"
   width="97px"
   y="0px"
   x="0px"
   id="Layer_1"
   version="1.1"><metadata
   id="metadata11"><rdf:RDF><cc:Work
       rdf:about=""><dc:format>image/svg+xml</dc:format><dc:type
         rdf:resource="http://purl.org/dc/dcmitype/StillImage" /><dc:title></dc:title></cc:Work></rdf:RDF></metadata><defs
   id="defs9" /><sodipodi:namedview
   inkscape:current-layer="Layer_1"
   inkscape:window-maximized="1"
   inkscape:window-y="23"
   inkscape:window-x="0"
   inkscape:cy="59.844222"
   inkscape:cx="26.421166"
   inkscape:zoom="3.6916624"
   showgrid="false"
   id="namedview7"
   inkscape:window-height="855"
   inkscape:window-width="1440"
   inkscape:pageshadow="2"
   inkscape:pageopacity="1"
   guidetolerance="10"
   gridtolerance="10"
   objecttolerance="10"
   borderopacity="1"
   bordercolor="#666666"
   pagecolor="#ffffff" />
<rect
   y="0"
   x="0"
   height="97.517044"
   width="98.0588"
   id="rect992"
   style="fill:#ffffff;stroke-width:1;stroke-miterlimit:4;stroke-dasharray:2, 1;stroke-dashoffset:0" /><g
   transform="matrix(0.76839411,0,0,0.7866032,11.233484,10.326412)"
   id="g4">
	<path
   id="path2"
   d="M 92.71,44.408 52.591,4.291 c -2.31,-2.311 -6.057,-2.311 -8.369,0 l -8.33,8.332 10.567,10.567 c 2.456,-0.83 5.272,-0.273 7.229,1.685 1.969,1.97 2.521,4.81 1.67,7.275 l 10.186,10.185 c 2.465,-0.85 5.307,-0.3 7.275,1.671 2.75,2.75 2.75,7.206 0,9.958 -2.752,2.751 -7.208,2.751 -9.961,0 -2.068,-2.07 -2.58,-5.11 -1.531,-7.658 l -9.5,-9.499 v 24.997 c 0.67,0.332 1.303,0.774 1.861,1.332 2.75,2.75 2.75,7.206 0,9.959 -2.75,2.749 -7.209,2.749 -9.957,0 -2.75,-2.754 -2.75,-7.21 0,-9.959 0.68,-0.679 1.467,-1.193 2.307,-1.537 v -25.23 c -0.84,-0.344 -1.625,-0.853 -2.307,-1.537 -2.083,-2.082 -2.584,-5.14 -1.516,-7.698 L 31.798,16.715 4.288,44.222 c -2.311,2.313 -2.311,6.06 0,8.371 l 40.121,40.118 c 2.31,2.311 6.056,2.311 8.369,0 L 92.71,52.779 c 2.311,-2.311 2.311,-6.06 0,-8.371 z"
   fill="#f05133" />
</g>
<g
   transform="matrix(0.87869035,0,0,0.87869035,7.6416069,7.6174739)"
   id="g844"><rect
     style="fill:#232323;stroke-width:1.75748"
     id="rect836"
     width="3.1435957"
     height="13.753232"
     x="2.1612222"
     y="2.9471211" /><rect
     y="2.1964753"
     x="-5.3955355"
     height="13.753232"
     width="3.1435957"
     id="rect840"
     style="fill:#232323;stroke-width:1.75748"
     transform="rotate(-90)" /></g><g
   id="g850"
   transform="matrix(0,0.87869035,-0.87869035,0,89.726362,7.6268381)"><rect
     y="2.9471211"
     x="2.1612222"
     height="13.753232"
     width="3.1435957"
     id="rect846"
     style="fill:#232323;stroke-width:1.75748" /><rect
     transform="rotate(-90)"
     style="fill:#232323;stroke-width:1.75748"
     id="rect848"
     width="3.1435957"
     height="13.753232"
     x="-5.3955355"
     y="2.1964753" /></g><g
   id="g856"
   transform="matrix(-0.87869035,0,0,-0.87869035,89.370071,89.034952)"><rect
     y="2.9471211"
     x="2.1612222"
     height="13.753232"
     width="3.1435957"
     id="rect852"
     style="fill:#232323;stroke-width:1.75748" /><rect
     transform="rotate(-90)"
     style="fill:#232323;stroke-width:1.75748"
     id="rect854"
     width="3.1435957"
     height="13.753232"
     x="-5.3955355"
     y="2.1964753" /></g><g
   transform="matrix(0,-0.87869035,0.87869035,0,7.2853164,89.025584)"
   id="g862"><rect
     style="fill:#232323;stroke-width:1.75748"
     id="rect858"
     width="3.1435957"
     height="13.753232"
     x="2.1612222"
     y="2.9471211" /><rect
     y="2.1964753"
     x="-5.3955355"
     height="13.753232"
     width="3.1435957"
     id="rect860"
     style="fill:#232323;stroke-width:1.75748"
     transform="rotate(-90)" /></g><path
   inkscape:export-ydpi="250"
   inkscape:export-xdpi="250"
   id="path864"
   d="M 21.656461,9.996957 75.051922,9.9266085"
   style="fill:none;stroke:#000000;stroke-width:0.87869;stroke-linecap:butt;stroke-linejoin:miter;stroke-miterlimit:4;stroke-dasharray:1.75738, 0.87869;stroke-dashoffset:0;stroke-opacity:1" /><path
   style="fill:none;stroke:#000000;stroke-width:0.87869;stroke-linecap:butt;stroke-linejoin:miter;stroke-miterlimit:4;stroke-dasharray:1.75738, 0.87869;stroke-dashoffset:0;stroke-opacity:1"
   d="m 21.656461,86.567315 53.395461,-0.07035"
   id="path866"
   inkscape:export-xdpi="250"
   inkscape:export-ydpi="250" /><path
   style="fill:none;stroke:#000000;stroke-width:0.87869;stroke-linecap:butt;stroke-linejoin:miter;stroke-miterlimit:4;stroke-dasharray:1.75738, 0.87869;stroke-dashoffset:0;stroke-opacity:1"
   d="M 10.104184,74.306206 10.033836,20.910744"
   id="path868"
   inkscape:export-xdpi="250"
   inkscape:export-ydpi="250" /><path
   inkscape:export-ydpi="250"
   inkscape:export-xdpi="250"
   id="path870"
   d="M 87.171832,73.701482 87.101481,20.306018"
   style="fill:none;stroke:#000000;stroke-width:0.87869;stroke-linecap:butt;stroke-linejoin:miter;stroke-miterlimit:4;stroke-dasharray:1.75738, 0.87869;stroke-dashoffset:0;stroke-opacity:1" /></svg>
