<?xml version="1.0" encoding="UTF-8" standalone="no"?>
<svg
   xmlns:dc="http://purl.org/dc/elements/1.1/"
   xmlns:cc="http://creativecommons.org/ns#"
   xmlns:rdf="http://www.w3.org/1999/02/22-rdf-syntax-ns#"
   xmlns:svg="http://www.w3.org/2000/svg"
   xmlns="http://www.w3.org/2000/svg"
   xmlns:sodipodi="http://sodipodi.sourceforge.net/DTD/sodipodi-0.dtd"
   xmlns:inkscape="http://www.inkscape.org/namespaces/inkscape"
   height="538.11908"
   width="603.20532"
   inkscape:version="1.0 (4035a4f, 2020-05-01)"
   sodipodi:docname="presentations.svg"
   id="svg864"
   version="1.1"
   viewBox="0 0 603.20532 538.11908"
   xml:space="preserve"
   style="clip-rule:evenodd;fill-rule:evenodd;image-rendering:optimizeQuality;shape-rendering:geometricPrecision;text-rendering:geometricPrecision"><sodipodi:namedview
   fit-margin-bottom="0"
   fit-margin-right="0"
   fit-margin-left="0"
   fit-margin-top="0"
   inkscape:current-layer="svg864"
   inkscape:window-maximized="1"
   inkscape:window-y="23"
   inkscape:window-x="0"
   inkscape:cy="418.43322"
   inkscape:cx="179.51684"
   inkscape:zoom="0.35491643"
   showgrid="false"
   id="namedview866"
   inkscape:window-height="855"
   inkscape:window-width="1440"
   inkscape:pageshadow="2"
   inkscape:pageopacity="0"
   guidetolerance="10"
   gridtolerance="10"
   objecttolerance="10"
   borderopacity="1"
   bordercolor="#666666"
   pagecolor="#ffffff"
   inkscape:document-rotation="0" />
 <defs
   id="defs835">
  <style
   id="style833"
   type="text/css">
    .str0 {stroke:#16A811;stroke-width:62.64}
    .fil3 {fill:#2B2A29}
    .fil1 {fill:#B2B3B3}
    .fil2 {fill:#D9DADA}
    .fil0 {fill:#FEFEFE}
  </style>
 
  
  
  
  
  
  
  
  
  
  
  
  
 </defs>
 
<metadata
   id="metadata862"><rdf:RDF><cc:Work><dc:format>image/svg+xml</dc:format><dc:type
         rdf:resource="http://purl.org/dc/dcmitype/StillImage" /><cc:license
         rdf:resource="http://creativecommons.org/publicdomain/zero/1.0/" /><dc:publisher><cc:Agent
           rdf:about="http://openclipart.org/"><dc:title>Openclipart</dc:title></cc:Agent></dc:publisher><dc:title></dc:title></cc:Work><cc:License
       rdf:about="http://creativecommons.org/publicdomain/zero/1.0/"><cc:permits
         rdf:resource="http://creativecommons.org/ns#Reproduction" /><cc:permits
         rdf:resource="http://creativecommons.org/ns#Distribution" /><cc:permits
         rdf:resource="http://creativecommons.org/ns#DerivativeWorks" /></cc:License></rdf:RDF></metadata><rect
   y="0"
   x="0"
   height="538.11908"
   width="603.20532"
   id="rect847-5"
   style="opacity:1;fill:#dcdcdc;fill-opacity:1;stroke-width:3.63516" /><path
   id="path837-2"
   d="M 80.968753,57.928908 H 511.54531 c 13.7694,0 24.9491,11.179706 24.9491,24.949061 V 305.14568 c 0,13.76936 -11.1797,24.94906 -24.9491,24.94906 H 80.968753 c -13.76936,0 -24.94906,-11.1797 -24.94906,-24.94906 V 82.877969 c 0,-13.769355 11.1797,-24.949061 24.94906,-24.949061 z"
   class="fil0 str0"
   style="clip-rule:evenodd;fill:#f2f2f2;fill-opacity:1;fill-rule:evenodd;stroke:#000000;stroke-width:1.97824;image-rendering:optimizeQuality;shape-rendering:geometricPrecision;text-rendering:geometricPrecision" /><path
   style="stroke-width:0.0315811"
   class="fil1"
   d="m 150.52687,245.03783 51.82457,7.011 c -3.88447,28.58089 -30.2231,48.66646 -58.80399,44.81357 -28.58088,-3.88448 -48.666457,-30.22311 -44.813557,-58.80399 3.884467,-28.58089 30.223097,-48.66646 58.803987,-44.81357 l -7.01101,51.82457 z"
   id="path839" /><path
   style="fill:#aa4400;stroke-width:0.0315811"
   class="fil2"
   d="m 162.96982,235.5635 7.01101,-51.82457 c 28.58088,3.88448 48.66645,30.22311 44.81356,58.80399 l -51.82457,-7.011 z"
   id="path841" /><rect
   style="fill:#ff9955;stroke-width:0.0315811"
   y="91.332664"
   x="108.5872"
   height="12.506112"
   class="fil2"
   width="396.91113"
   id="rect843" /><rect
   style="fill:#ff9955;stroke-width:0.0315811"
   y="119.81881"
   x="108.5872"
   height="12.506112"
   class="fil2"
   width="396.91113"
   id="rect845" /><rect
   style="fill:#ff9955;stroke-width:0.0315811"
   y="148.30496"
   x="108.5872"
   height="12.506112"
   class="fil2"
   width="396.91113"
   id="rect847" /><rect
   style="fill:#ff9955;stroke-width:0.0315811"
   y="174.99098"
   x="244.60695"
   height="12.506112"
   class="fil2"
   width="260.82822"
   id="rect849" /><rect
   style="fill:#ff9955;stroke-width:0.0315811"
   y="203.47713"
   x="244.60695"
   height="12.506112"
   class="fil2"
   width="260.82822"
   id="rect851" /><rect
   style="fill:#ff9955;stroke-width:0.0315811"
   y="231.96326"
   x="244.60695"
   height="12.506112"
   class="fil2"
   width="260.82822"
   id="rect853" /><rect
   style="fill:#ff9955;stroke-width:0.0315811"
   y="260.4494"
   x="244.60695"
   height="12.506112"
   class="fil2"
   width="260.82822"
   id="rect855" /><rect
   style="fill:#ff9955;stroke-width:0.0315811"
   y="288.93555"
   x="244.60695"
   height="12.506112"
   class="fil2"
   width="260.82822"
   id="rect857" /><path
   style="stroke-width:0.0315811"
   class="fil3"
   d="m 391.77482,419.36544 z m 90.66931,-171.54848 49.67705,101.2174 c 3.82132,7.83211 0.60005,17.24327 -7.23207,21.06458 -7.83211,3.82132 -17.24327,0.60004 -21.06458,-7.23207 l -24.53851,-50.02444 -2.93704,34.29706 30.25468,122.06091 c 2.08436,8.46374 -3.09494,17.02221 -11.55868,19.10656 -8.46373,2.08436 -17.0222,-3.09494 -19.10655,-11.55867 l -22.5489,-90.89038 -33.34963,48.098 c -0.72637,7.80053 -2.24226,24.31744 -2.24226,28.99144 0,8.74796 -7.07417,15.82212 -15.82213,15.82212 -8.74796,0 -15.82212,-7.07416 -15.82212,-15.82212 0,-6.60045 2.87388,-36.00244 2.87388,-36.06561 0.25264,-2.77913 1.23166,-5.3372 2.71597,-7.48471 l 53.08781,-76.58415 4.98981,-58.39343 -30.06519,18.09596 v 0.0316 l -0.72637,0.37898 -0.72636,0.34739 -0.72637,0.34739 -0.72636,0.28423 -0.72637,0.22107 -0.72636,0.22106 -0.78953,0.15791 -0.78953,0.12632 -0.78953,0.12633 -0.78952,0.0632 h -0.53688 l -0.18949,0.0632 v -0.0632 h -0.0316 -0.0632 -52.48777 -0.85269 l -0.78953,-0.0632 -0.78953,-0.12633 -0.78952,-0.12632 -0.78953,-0.15791 -0.72637,-0.22106 -0.72636,-0.22107 -0.72637,-0.28423 -0.72636,-0.34739 -0.6632,-0.34739 -0.66321,-0.37898 -0.63162,-0.37897 -0.63162,-0.44214 -0.63162,-0.44213 -0.56846,-0.5053 -0.56846,-0.5053 -0.5053,-0.56846 -0.5053,-0.56846 -0.44213,-0.63162 -0.44214,-0.63162 -0.37897,-0.63162 -0.37897,-0.6632 -0.3474,-0.66321 -0.34739,-0.72636 -0.28423,-0.72637 -0.22107,-0.72636 -0.22106,-0.72637 -0.15791,-0.78952 -0.12632,-0.78953 -0.12633,-0.78953 -0.0632,-0.78953 v -0.85268 -0.85269 l 0.0632,-0.78953 0.12633,-0.78953 0.12632,-0.78953 0.15791,-0.78952 0.22106,-0.72637 0.22107,-0.72636 0.28423,-0.72637 0.34739,-0.72636 0.3474,-0.66321 0.37897,-0.6632 0.37897,-0.63162 0.44214,-0.63162 0.44213,-0.63162 0.5053,-0.56846 0.5053,-0.56846 0.56846,-0.5053 0.56846,-0.5053 0.63162,-0.44213 0.63162,-0.44214 0.63162,-0.37897 0.66321,-0.37898 0.6632,-0.34739 0.72636,-0.34739 0.72637,-0.28423 0.72636,-0.22107 0.72637,-0.22106 0.78953,-0.15791 0.78952,-0.12632 0.78953,-0.12633 0.78953,-0.0632 h 0.85269 v -0.12633 h 48.16116 l 52.92991,-31.86532 0.0632,-0.0947 0.0947,0.0632 c 0.37897,-0.22106 0.75795,-0.44213 1.1685,-0.63162 0.85269,-0.41055 1.70538,-0.75794 2.58965,-1.01059 -19.01182,-3.78973 -33.34963,-20.55929 -33.34963,-40.70803 0,-22.92787 18.56968,-41.49755 41.49755,-41.49755 22.92787,0 41.49755,18.56968 41.49755,41.49755 0,22.07518 -17.24327,40.10799 -38.97106,41.40281 3.28443,1.45273 6.12673,4.0108 7.83211,7.5163 z"
   id="path859" /></svg>
