<?xml version="1.0" encoding="UTF-8" standalone="no"?>
<svg
   xmlns:dc="http://purl.org/dc/elements/1.1/"
   xmlns:cc="http://creativecommons.org/ns#"
   xmlns:rdf="http://www.w3.org/1999/02/22-rdf-syntax-ns#"
   xmlns:svg="http://www.w3.org/2000/svg"
   xmlns="http://www.w3.org/2000/svg"
   xmlns:sodipodi="http://sodipodi.sourceforge.net/DTD/sodipodi-0.dtd"
   xmlns:inkscape="http://www.inkscape.org/namespaces/inkscape"
   inkscape:version="1.0 (4035a4f, 2020-05-01)"
   height="538.11908"
   width="603.20532"
   sodipodi:docname="Quill-And-Ink-Line-Art.svg"
   xml:space="preserve"
   enable-background="new 0 -16 1555 1952"
   viewBox="0 -16 603.20532 538.11908"
   y="0px"
   x="0px"
   id="Layer_1"
   version="1.1"><metadata
   id="metadata864"><rdf:RDF><cc:Work
       rdf:about=""><dc:format>image/svg+xml</dc:format><dc:type
         rdf:resource="http://purl.org/dc/dcmitype/StillImage" /><dc:title></dc:title></cc:Work></rdf:RDF></metadata><defs
   id="defs862">
	
	
	
	
	
	
	
	
	
	
	
	
<filter
   height="1.722749"
   y="-0.3613745"
   width="1.5072879"
   x="-0.25364396"
   id="filter894"
   style="color-interpolation-filters:sRGB"
   inkscape:collect="always"><feGaussianBlur
     id="feGaussianBlur896"
     stdDeviation="53.672499"
     inkscape:collect="always" /></filter></defs><sodipodi:namedview
   inkscape:current-layer="Layer_1"
   inkscape:window-maximized="0"
   inkscape:window-y="23"
   inkscape:window-x="0"
   inkscape:cy="250.98413"
   inkscape:cx="-16.62041"
   inkscape:zoom="0.44473843"
   fit-margin-bottom="0"
   fit-margin-right="0"
   fit-margin-left="0"
   fit-margin-top="0"
   showgrid="false"
   id="namedview860"
   inkscape:window-height="855"
   inkscape:window-width="1440"
   inkscape:pageshadow="2"
   inkscape:pageopacity="0"
   guidetolerance="10"
   gridtolerance="10"
   objecttolerance="10"
   borderopacity="1"
   bordercolor="#666666"
   pagecolor="#ffffff" />

<rect
   y="-16"
   x="0"
   height="538.11908"
   width="603.20532"
   id="rect847"
   style="opacity:1;fill:#e6e6e6;fill-opacity:1;stroke-width:3.63516" /><g
   transform="matrix(0.24550544,0,0,0.24550544,83.768346,17.067998)"
   id="g932"><path
     style="fill:#00d400;fill-opacity:0.692308;stroke:#000000;stroke-width:1px;stroke-linecap:butt;stroke-linejoin:miter;stroke-opacity:1;filter:url(#filter894)"
     d="m 1111.5286,1519.0593 -114.98572,185.8936 -51.74358,126.4843 241.47,34.4957 266.3836,-34.4957 -49.8272,-143.7322 -118.8185,-178.2278"
     id="path880"
     transform="matrix(1.0976749,0,0,1.1802679,-115.78248,-297.43748)" /><g
     id="g916"><path
       d="m 173.75,13.77 c 5.13,-2.24 10.81,-2.7 16.33,-3.04 7.35,-0.16 14.72,-0.33 22.05,0.26 15.48,1.94 30.53,6.21 45.45,10.62 41.87,12.88 82.29,29.95 122.35,47.55 49.33,22.1 97.92,45.86 145.72,71.09 11.88,6.34 23.9,12.47 35.41,19.46 C 520.33,141.25 479.36,123.33 438.24,105.75 404.35,91.31 370.29,77.24 335.87,64.07 301.92,51.3 267.77,38.7 232.43,30.29 c -13.17,-2.84 -26.61,-5.44 -40.15,-4.41 21.41,11.72 43.22,23.1 62.26,38.55 26.01,20.5 47.91,47.74 56.97,80.02 29.37,108.39 57.86,217.02 84.22,326.19 2.64,11.09 5.39,22.17 7.69,33.34 C 370.31,400.82 339.38,296.97 309.4,192.87 304.95,177.56 300.66,162.21 296.09,146.94 287.8,120.12 269.57,97.41 248.03,79.89 231.77,66.58 213.71,55.69 195.25,45.74 188.18,41.85 180.91,38.3 174.26,33.71 c -3.54,-2.46 -6.99,-6.06 -6.93,-10.66 -0.08,-4.09 2.83,-7.65 6.42,-9.28 z"
       id="path833" /><path
       d="m 435.96,128.99 c -0.98,-0.72 -1.05,-1.63 -0.22,-2.74 67.84,44.67 133.82,92.16 197.64,142.41 28.38,22.47 56.13,45.74 83.09,69.89 27.83,25.1 54.8101,51.24 79.35,79.6 11.76,13.77 22.96,28.04 32.76,43.28 8.65,13.97 16.99,28.14 26.26,41.72 28.41,42.11 61.17,81.04 90.8199,122.25 22.6,31.29 43.27,64.0699 60.27,98.75 30.65,62.2 47.8701,131.12 48.94,200.5 -0.48,0.03 -1.45,0.08 -1.9301,0.11 -6.5099,-44.42 -17.0299,-88.39 -33.3499,-130.27 -14.84,-38.43 -34.31,-74.97 -56.77,-109.46 C 921.98,621.91 873.02,564.4 833.79,500.2 826.72,488.83 820.48,476.97 813.41,465.6 792.45,433.08 766.25,404.35 739.26,376.78 711.13,348.53 681.6,321.72 651.32,295.79 582.34,236.69 510.07,181.49 435.96,128.99 Z"
       id="path835" /><path
       d="m 628.19,439.73 c 2.89,-2.18 5.92,-4.17 8.88,-6.27 71.76,103.89 142.04,208.81 210.33,315.02 41.45,64.66 82.2,129.79 120.84,196.18 19.34,33.39 38.18,67.1 55.45,101.6201 18.93,38.49 36.04,77.84 52.4999,117.4399 31.05,74.9401 59.42,150.9401 88.0601,226.8201 1.45,3.62 0.41,7.99 2.97,11.23 3.63,3.98 4.5901,9.4299 6.6801,14.24 6.4299,16.9299 12.91,33.84 19.52,50.7 13.4199,-0.33 26.89,-0.6799 40.23,-2.1599 -9.09,-19.7301 -17.61,-39.7301 -26.74,-59.4501 -1.6901,-3.0699 -1.11,-6.7899 -2.79,-9.85 -1.05,-2.28 -3.3099,-3.6801 -4.38,-5.91 -27.46,-59.9 -55.61,-119.49 -84.05,-178.9299 -6.7999,-14.12 -13.35,-28.35 -21.0199,-42.02 -74.71,-139.11 -149.47,-278.19 -224.09,-417.34 3.18,-1.63 6.28,-3.4 9.48,-4.98 77.27,143.74 154.44,287.53 231.65,431.29 26.6001,54.96 52.6901,110.16 78.4601,165.5 8.2,17.4 15.97,35.01 24.26,52.36 26.1799,1.1 52.2999,3.91 78.08,8.62 16.74,3.35 33.58,7.2201 49.11,14.52 6.23,3.1 12.4401,6.91 16,13.17 -5.8099,-8.27 -15.3,-12.3301 -24.4301,-15.67 -17.8099,-6.24 -36.5,-9.39 -55.1299,-11.98 -20.5701,-2.48 -41.26,-4.1901 -61.9801,-4.51 9.87,21.33 19.4,42.8199 28.74,64.39 24.62,-2.41 49.25,-5.95 73.0701,-12.78 8.2999,-2.5699 16.66,-5.33 24.16,-9.7999 2.6699,-1.8101 5.88,-3.64 6.8199,-6.9501 2.84,0.24 5.67,0.5701 8.51,1.02 0,-1.71 0.02,-3.39 0.14,-5.0601 0.07,1.67 0.12,3.3501 0.16,5.0601 3.25,0.25 6.5199,0.53 9.7599,1.03 -0.5,6.12 -3.9099,11.6599 -8.5499,15.5499 -7.65,6.5 -17.1801,10.14 -26.5701,13.3101 -26.1899,8.23 -53.62,11.61 -80.88,13.87 7.29,18.17 15.5,36.09 20.6201,55.04 2.0699,11.88 3.6,23.88 4.0099,35.95 -0.3199,6.62 -0.6699,14.22 -5.88,19.0601 -4.8199,4.59 -12.25,3.9199 -18.0399,1.7799 -6.79,-2.65 -13.86,-5.83 -18.35,-11.83 -6.25,-8.02 -10.91,-17.14 -15.4701,-26.1901 -11.34,-23.34 -21.23,-47.37 -30.63,-71.5399 -45.0499,-1.2101 -90.5299,-4.05 -134.25,-15.75 -10.6699,-3 -21.3199,-6.5601 -30.89,-12.22 -5.37,-3.3701 -10.89,-7.6901 -12.74,-14.04 -1.79,-5.85 1.04,-12.09 5.4,-16.01 7.2401,-6.63 16.63,-10.17 25.79,-13.27 23.58,-7.5 48.24,-10.72 72.78,-13.1899 13.48,-0.9501 26.96,-2.1101 40.48,-2.29 -31.05,-82.01 -61.62,-164.23 -95.72,-245.03 -15.14,-35.6799 -30.79,-71.16 -48.22,-105.79 C 991.85,1007.43 971.76,972 951.2,936.87 907.98,863.43 862.41,791.4 816.1,719.86 754.81,625.59 692.27,532.13 628.19,439.73 M 1095.8101,1406 c -18.9801,3.08 -38.02,6.71 -56.03,13.61 -7.01,2.89 -14.4301,5.9501 -19.45,11.87 -1.84,2.0601 -1.97,5.23 -0.05,7.3101 3.6,4.2799 8.7899,6.83 13.8199,9.08 11.42,4.91 23.59,7.76 35.74,10.26 22.55,4.23 45.4401,6.84 68.37,7.67 l 0.67,0.38 c 14.33,0.3099 28.6801,1.0699 43.02,0.6499 -8.6801,-22.1499 -17.0701,-44.4099 -25.54,-66.64 -20.28,0.73 -40.49,2.8799 -60.5499,5.81 m 103.3399,75.1899 c 10.96,26.9901 21.63,54.2301 35.65,79.8201 4.0499,6.42 7.6899,14.1 15.1599,17.13 4.03,1.6899 8.65,4.8199 13.0901,2.9399 2.98,-5.1599 2.2,-11.48 2.0599,-17.1899 -0.75,-7.24 -1.46,-14.49 -2.58,-21.6801 -0.67,-6.98 -3.26,-13.5299 -5.51,-20.1 -4.73,-13.02 -10.0801,-25.8099 -15.42,-38.58 -0.66,-1.3101 -0.91,-2.9301 -2.13,-3.8 -13.4,1.1301 -26.8799,1.1801 -40.3199,1.46 z"
       id="path837" /><path
       d="m 408.17,498.48 c 2.06,0.02 4.15,-0.04 6.19,0.41 43.7,9.28 86.9,21.55 128.22,38.62 17.27,7.51 34.72,15.44 49.32,27.53 5.49,4.81 11.85,11.21 10.25,19.22 -1.7,7.22 -9.34,10.44 -15.89,11.88 -16.87,3.43 -34.23,2.38 -51.29,1.35 -36.31,-2.83 -72.39,-8.55 -107.86,-16.78 43.31,1.89 86.6,6.09 130,5.37 10.62,-0.89 21.84,-0.33 31.75,-4.9 -6.01,-7.18 -14.05,-12.24 -21.99,-17.03 -14.26,-8.23 -29.26,-15.08 -44.35,-21.64 -34.76,-14.97 -70.36,-27.87 -105.71,-41.37 -2.78,-1.2 -5.68,-2.07 -8.64,-2.66 z"
       id="path839" /><path
       d="m 443.57,596.39 c 25.08,56.53 44.23,115.43 67.14,172.84 6.7,16.15 13.28,32.53 22.98,47.17 1.21,2.48 4.39,1.85 6.64,2.5099 32.77,6.4901 65.18,15.54 95.94,28.69 12.88,5.78 25.87,12.05 36.47,21.56 4.04,3.8701 8.35,8.76 7.73,14.78 -0.27,5.6 -5.28,9.51 -10.1899,11.24 -10.0601,3.38 -20.83,3.42 -31.33,3.38 -24.72,-0.45 -49.22,-4.24 -73.54,-8.43 13.3,16.49 26.29,33.24 40.21,49.23 26.73,31.41 55.18,61.42 85.86,89.02 16.27,14.3 33.1,27.98 50.91,40.33 17.81,11.99 36.49,22.65 55.7,32.24 38.3199,19.4801 78.27,35.55 118.64,50.2301 29.71,10.7999 59.74,20.6799 89.94,30.0199 5.22,1.49 10.33,3.4501 15.73,4.27 -5.25,0.4 -10.36,-1.0599 -15.51,-1.77 -45.98,-8.1599 -91.23,-20.22 -135.41,-35.2899 -37.89,-13.36 -75.16,-28.86 -110.11,-48.79 -35.54,-20.38 -67.29,-46.85 -95.8,-76.16 -39.01,-40.22 -73.03,-85.31 -101.15,-133.78 -6.21,-1.14 -12.33,-2.74 -18.53,-3.97 13.03,-0.5 26.05,0.56 39.08,0.65 20.36,0.35 40.7401,0.98 61.09,-0.2 6.6,-0.69 13.31,-1.17 19.64,-3.31 0.28,-1.08 -0.03,-1.93 -0.91,-2.55 -8.49,-8.09 -19.06,-13.47 -29.37,-18.83 -30.61,-15.03 -62.62,-26.89 -94.2,-39.66 -2.87,-1.25 -6.0699,-1.73 -8.6899,-3.51 -10.8101,-9.67 -19.72,-21.29 -27.23,-33.67 -18.9,-31.33 -32.11,-65.74 -42.95,-100.58 -7.79,-25.56 -14.09,-51.61 -17.96,-78.06 -0.5302,-3.17 -0.9702,-6.38 -0.8202,-9.6 z"
       id="path841" /><path
       d="m 1127.26,750.33 c 4.72,-1.58 9.1899,3.21 9.3099,7.7 2.6901,27.89 3.75,55.93 4.17,83.95 0.2,27.05 0.26,54.13 -1.34,81.14 -1.4,24.89 -3.63,49.82 -8.6901,74.26 -2.8099,11.83 -5.5499,24.17 -12.73,34.24 4.92,-11.19 6.28,-23.47 7.46,-35.52 2.3201,-25.98 1.91,-52.1 1.91,-78.15 -0.35,-18.04 -0.89,-36.06 -1.15,-54.09 l -0.3999,-0.69 c -0.15,-13.7 -0.9601,-27.39 -1.54,-41.08 -15.05,36.04 -36.54,69.03 -60.33,99.85 -5.8601,7.44 -11.8101,14.83 -18.2101,21.82 22.1801,-36.47 43.99,-73.42 60.3101,-112.96 6.74,-16.94 12.9199,-34.4 14.5599,-52.68 0.5901,-7.11 -0.1899,-14.23 0.12,-21.34 1.0502,-2.93 3.7502,-5.2 6.5502,-6.45 z"
       id="path843" /><path
       d="m 1166.33,905.13 c 1.55,-2.42 3.77,-4.55 6.51,-5.54 3.86,-1.21 7.4501,2.1299 8.6901,5.54 0.7999,4.6 1.11,9.28 1.2899,13.96 l 0.38,0.64 c 2.9701,48.97 4.3401,98.13 1.77,147.16 -1.1799,25.63 -3.38,51.29 -8.24,76.52 -1.8199,8.8099 -3.97,17.59 -7.22,26 -1.6901,4.08 -3.5,8.22 -6.45,11.58 4.1499,-7.96 5.3099,-17.04 6.6699,-25.79 3.51,-29.59 3.04,-59.45 2.88,-89.2 -0.28,-22.67 -0.83,-45.34 -1.9299,-67.99 -0.3101,-8.98 -0.27,-18 -1.3,-26.93 -2.42,7.83 -6.42,15.07 -9.98,22.43 -9.6,19.09 -20.9601,37.25 -33.16,54.78 -10.95,15.4399 -22.3099,30.6699 -35.13,44.62 21.4401,-35.02 42.29,-70.6 58.46,-108.42 8.26,-20.26 16.15,-41.33 16.6801,-63.47 0.3499,-5.29 -1.1101,-10.68 0.08,-15.89 z"
       id="path845" /><path
       d="m 1231.9,1081.8101 c 1.7899,-6.38 12.0399,-7.01 14.39,-0.7101 2.6799,8.11 0.1799,16.77 -1.4401,24.86 -3.4199,45.28 -7.46,90.78 -18.08,135.04 -3.6,13.0601 -6.6901,26.8199 -14.78,37.96 3.46,-10.6899 4.8201,-21.88 6.09,-33 2.42,-25.6599 4.1001,-51.38 5.8401,-77.09 0.6899,-9.0699 1.4299,-18.15 1.8199,-27.24 -11.8099,16.88 -25.71,32.33 -41.15,45.97 15.9401,-24.61 32.99,-48.98 43.4601,-76.5699 1.78,-9.6501 1.33,-19.6801 3.85,-29.22 z"
       id="path847" /><path
       d="m 891.45,1203.42 c -0.08,-3.49 0.66,-7.4801 3.73,-9.5801 3.1,-1.0699 6.36,0.25 8.87,2.11 15.43,11.3201 33.56,17.99 51.3,24.76 35.66,13.1001 72.0701,24.03 108.3,35.4501 7.53,2.11 14.8099,5.1 22.5,6.63 -10.53,-0.13 -20.8,-2.8101 -31.16,-4.4 -36.31,-6.85 -72.37,-15.37 -107.45,-27.05 30.48,23.36 60.83,46.9401 92.3901,68.85 5.5599,3.9501 11.49,7.38 16.95,11.4801 -20.35,-8.5801 -39.57,-19.5601 -58.34,-31.14 -31.34,-19.48 -61.58,-40.72 -90.75,-63.3101 -5.5201,-4.51 -11.3701,-8.6599 -16.3401,-13.8 z"
       id="path849" /><path
       d="m 942.87,1276.74 c 4,-1.85 8.04,0.92 11.16,3.25 15.9399,11.16 34.46,17.73 52.53,24.5601 35.22,12.7999 71.14,23.5599 106.8701,34.83 7.0099,2 13.7999,4.76 20.98,6.14 -5.4601,0.2999 -10.77,-1.0801 -16.13,-1.8 -35.4401,-5.95 -70.5701,-13.85 -105.03,-24.08 -5.97,-1.48 -11.61,-4.27 -17.69,-5.2001 0.64,0.3501 1.92,1.05 2.56,1.4 29.6801,23.1 59.5601,45.99 90.45,67.4401 5.5,3.53 10.64,7.7 16.6101,10.4399 -7.92,-1.7999 -14.91,-6.3199 -22.2201,-9.6899 -35.3199,-18.52 -68.42,-40.97 -100.74,-64.26 -14.5099,-10.85 -29.41,-21.3101 -42.73,-33.61 -0.1701,-3.4101 0.5499,-7.2001 3.3799,-9.4201 z"
       id="path851" /><path
       d="m 1293.64,1484.15 c 23.26,27.66 45.24,56.36 66.72,85.4199 23.52,32.1901 46.3101,64.9501 67.37,98.8301 16.41,26.4299 32.05,53.41 45.25,81.61 9.89,21.3199 18.85,43.33 23.23,66.52 1.5901,8.03 0.91,16.27 1.0601,24.4199 0.29,16.4501 -10.22,32.55 -25.48,38.79 -14.3101,6.14 -29.7101,9.12 -44.92,12.08 -32.03,5.7301 -64.42,9 -96.83,11.54 -43.9601,3.14 -87.99,5.51 -132.0701,5.35 -42.0699,-0.21 -84.1899,0.75 -126.2,-1.85 -24.5801,-1.04 -49.1,-3.08 -73.53,-5.9 -22.4,-2.85 -44.9,-6.0499 -66.54,-12.6699 -10.02,-3.3501 -20.65,-7.0601 -27.87,-15.17 -5.61,-6.24 -5.51,-15.22 -5.78,-23.09 0.16,-21.72 6.95,-42.6901 14.32,-62.9 14.72,-38.9301 34.47,-75.71 55.14,-111.75 19.22,-33.28 39.88,-65.72 61.25,-97.66 17.71,-26.33 35.9,-52.34 54.98,-77.6899 -42.55,66.7 -83.83,134.36 -119.85,204.86 -10.3,20.4399 -20.07,41.15 -28.79,62.3199 -7.42,18.1901 -14.24,36.7101 -18.45,55.9401 -2.51,12 -4.38,24.52 -1.95,36.71 0.59,3.37 3.93,5.11 6.6,6.74 8.98,4.7101 18.93,7.17 28.76,9.4501 26.92,5.75 54.39,8.2999 81.79,10.35 42.65,2.95 85.4,4.38 128.15,4.16 46.4,0.1699 92.78,-1.2001 139.12,-3.4801 34.61,-2.13 69.22,-4.7799 103.64,-9.14 18.52,-2.6 37.15,-5.2699 55.09,-10.7599 5.4501,-1.89 11.34,-3.63 15.4,-7.9801 4.8,-4.4399 7.45,-10.76 8.22,-17.1599 2.14,-16.49 -2.1,-32.9501 -6.75,-48.66 -9.51,-29.97 -23.48,-58.27 -38.0499,-86.04 -18.7101,-35.23 -39.6001,-69.25 -61.02,-102.88 C 1349.38,1563.64 1321.9,1523.61 1293.64,1484.15 Z"
       id="path853" /><path
       d="m 1210.33,1673.37 c 14.5701,0.09 29.25,-1.9301 43.7201,0.53 19.6499,3.13 39.13,7.65 57.9199,14.24 8.9301,3.39 18.27,6.84 25.39,13.4299 3.53,3.15 3.6801,8.0701 3.4501,12.4601 -0.03,22.6599 0.02,45.33 -0.02,68 0.03,6.0599 -1.2101,12.23 -4.25,17.53 -5.7101,10.5099 -17.48,17.4099 -29.4601,17.1 -83.0399,-0.05 -166.08,0.01 -249.11,-0.03 -16.63,-0.1901 -31.6,-14.9 -31.83,-31.5601 -0.02,-25.3899 -0.01,-50.7699 0,-76.1499 -0.3,-4.7201 3.83,-7.9501 7.38,-10.24 8.9199,-5.4401 19.01,-8.53 28.98,-11.42 20.42,-5.54 41.29,-9.48 62.33,-11.66 28.4899,-0.97 57,-1.55 85.5,-2.23 z"
       id="path855" /></g></g></svg>
