<?xml version="1.0" encoding="UTF-8" standalone="no"?>
<svg
   xmlns:dc="http://purl.org/dc/elements/1.1/"
   xmlns:cc="http://creativecommons.org/ns#"
   xmlns:rdf="http://www.w3.org/1999/02/22-rdf-syntax-ns#"
   xmlns:svg="http://www.w3.org/2000/svg"
   xmlns="http://www.w3.org/2000/svg"
   xmlns:sodipodi="http://sodipodi.sourceforge.net/DTD/sodipodi-0.dtd"
   xmlns:inkscape="http://www.inkscape.org/namespaces/inkscape"
   version="1.1"
   id="Layer_1"
   x="0px"
   y="0px"
   viewBox="0 -16 603.20532 538.11908"
   enable-background="new 0 -16 1555 1952"
   xml:space="preserve"
   sodipodi:docname="publications.svg"
   width="603.20532"
   height="538.11908"
   inkscape:version="1.0 (4035a4f, 2020-05-01)"><metadata
   id="metadata864"><rdf:RDF><cc:Work
       rdf:about=""><dc:format>image/svg+xml</dc:format><dc:type
         rdf:resource="http://purl.org/dc/dcmitype/StillImage" /><dc:title /></cc:Work></rdf:RDF></metadata><defs
   id="defs862">
	
	
	
	
	
	
	
	
	
	
	
	
<filter
   height="1.1558505"
   y="-0.077925255"
   width="1.2049146"
   x="-0.10245728"
   id="filter885"
   style="color-interpolation-filters:sRGB"
   inkscape:collect="always"><feGaussianBlur
     id="feGaussianBlur887"
     stdDeviation="9.7372874"
     inkscape:collect="always" /></filter><filter
   height="1.910115"
   y="-0.45505748"
   width="1.5543281"
   x="-0.27716406"
   id="filter980"
   style="color-interpolation-filters:sRGB"
   inkscape:collect="always"><feGaussianBlur
     id="feGaussianBlur982"
     stdDeviation="3.3748466"
     inkscape:collect="always" /></filter><filter
   inkscape:collect="always"
   style="color-interpolation-filters:sRGB"
   id="filter980-6"
   x="-0.27716407"
   width="1.5543281"
   y="-0.45505747"
   height="1.910115"><feGaussianBlur
     inkscape:collect="always"
     stdDeviation="3.3748466"
     id="feGaussianBlur982-4" /></filter><filter
   height="1.4711124"
   y="-0.23555619"
   width="1.2855227"
   x="-0.14276133"
   id="filter1021"
   style="color-interpolation-filters:sRGB"
   inkscape:collect="always"><feGaussianBlur
     id="feGaussianBlur1023"
     stdDeviation="7.172691"
     inkscape:collect="always" /></filter></defs><sodipodi:namedview
   inkscape:document-rotation="0"
   pagecolor="#ffffff"
   bordercolor="#666666"
   borderopacity="1"
   objecttolerance="10"
   gridtolerance="10"
   guidetolerance="10"
   inkscape:pageopacity="0"
   inkscape:pageshadow="2"
   inkscape:window-width="1440"
   inkscape:window-height="855"
   id="namedview860"
   showgrid="false"
   fit-margin-top="0"
   fit-margin-left="0"
   fit-margin-right="0"
   fit-margin-bottom="0"
   inkscape:zoom="0.66937916"
   inkscape:cx="249.10857"
   inkscape:cy="345.94802"
   inkscape:window-x="0"
   inkscape:window-y="23"
   inkscape:window-maximized="0"
   inkscape:current-layer="Layer_1"
   inkscape:snap-text-baseline="false" />

<path
   style="stroke-width:0.245505"
   id="path833"
   d="m 125.90025,28.180839 c 1.25944,-0.549932 2.65391,-0.662865 4.0091,-0.746337 1.80446,-0.03928 3.61384,-0.08102 5.41339,0.06383 3.80043,0.47628 7.49529,1.524589 11.15823,2.607268 10.27931,3.16211 20.20264,7.352887 30.03759,11.673783 12.11078,5.42567 24.03989,11.25888 35.77505,17.452982 2.9166,1.556504 5.86758,3.061453 8.69335,4.777536 -9.99944,-4.532031 -20.0578,-8.931488 -30.15298,-13.247474 -8.32018,-3.545098 -16.6821,-6.99936 -25.13239,-10.232666 -8.33491,-3.135105 -16.71892,-6.228473 -25.39509,-8.293174 -3.2333,-0.697236 -6.5329,-1.33555 -9.85704,-1.082679 5.25627,2.877324 10.61075,5.671175 15.28517,9.464234 6.3856,5.032862 11.76217,11.72043 13.98644,19.645346 7.2105,26.610334 14.20495,53.279592 20.67647,80.081422 0.64814,2.72265 1.32328,5.44285 1.88794,8.18515 -8.12869,-25.32634 -15.72217,-50.822082 -23.08242,-76.379199 -1.0925,-3.758688 -2.14572,-7.527197 -3.26768,-11.276065 -2.03524,-6.584456 -6.5108,-12.159884 -11.79899,-16.461139 -3.99192,-3.267678 -8.42575,-5.941232 -12.95778,-8.384011 -1.73572,-0.955016 -3.52055,-1.826561 -5.15316,-2.953431 -0.86909,-0.603943 -1.71608,-1.487763 -1.70135,-2.617088 -0.0196,-1.004117 0.69478,-1.878116 1.57615,-2.27829 z" /><path
   style="stroke-width:0.245505"
   id="path835"
   d="m 190.27423,56.467976 c -0.2406,-0.176764 -0.25778,-0.400174 -0.054,-0.672685 16.65508,10.966728 32.85353,22.625781 48.52169,34.96243 6.96744,5.516507 13.78022,11.229419 20.39905,17.158379 6.83241,6.16218 13.45618,12.57969 19.48085,19.54223 2.88715,3.38061 5.63681,6.88397 8.04276,10.62547 2.12362,3.42972 4.17114,6.90853 6.44698,10.24249 6.9748,10.33824 15.01756,19.89576 22.29677,30.01304 5.54843,7.68187 10.62303,15.72951 14.79662,24.24366 7.52474,15.27044 11.75237,32.19068 12.01503,49.22384 -0.11784,0.007 -0.35598,0.0196 -0.47385,0.027 -1.59821,-10.90535 -4.18093,-21.70023 -8.18758,-31.98199 -3.6433,-9.43478 -8.42329,-18.40555 -13.93734,-26.87303 -10.02642,-15.4963 -22.04637,-29.61532 -31.67754,-45.37677 -1.73573,-2.7914 -3.26768,-5.70309 -5.00341,-8.49449 -5.14579,-7.98384 -11.57803,-15.03721 -18.20422,-21.80579 -6.90608,-6.93552 -14.15586,-13.51752 -21.58976,-19.883477 C 226.21131,82.908912 208.46863,69.357011 190.27423,56.467976 Z" /><path
   style="stroke-width:0.245505"
   id="path837"
   d="m 237.46774,132.75634 c 0.70951,-0.53521 1.45339,-1.02376 2.18009,-1.53932 17.61747,25.50556 34.87159,51.26399 51.63715,77.33912 10.17621,15.87438 20.18055,31.86415 29.66688,48.16326 4.74808,8.19742 9.3734,16.47341 13.61328,24.94829 4.64742,9.4495 8.84801,19.11014 12.88901,28.83213 7.62294,18.3982 14.58793,37.05662 21.61923,55.68557 0.35599,0.88873 0.10066,1.96159 0.72915,2.75702 0.89119,0.97712 1.1269,2.3151 1.64001,3.496 1.57857,4.15638 3.16947,8.30791 4.79226,12.44713 3.29466,-0.081 6.60164,-0.16692 9.87669,-0.53027 -2.23165,-4.84385 -4.32336,-9.75396 -6.56482,-14.59532 -0.41493,-0.75368 -0.27251,-1.66696 -0.68496,-2.41823 -0.25778,-0.55975 -0.8126,-0.90349 -1.07531,-1.45094 -6.74158,-14.70577 -13.65256,-29.33544 -20.63474,-43.92826 -1.66941,-3.46654 -3.27749,-6.96008 -5.1605,-10.31614 -18.34171,-34.15226 -36.69569,-68.29716 -55.01531,-102.45924 0.78071,-0.40018 1.54177,-0.83472 2.32739,-1.22262 18.97021,35.28895 37.91586,70.59018 56.87134,105.88404 6.53047,13.49298 12.9357,27.04488 19.26238,40.63115 2.01314,4.2718 3.92072,8.59515 5.95596,12.85467 6.42731,0.27005 12.83991,0.95992 19.16906,2.11625 4.10977,0.82245 8.24408,1.77258 12.05678,3.56474 1.5295,0.76107 3.05411,1.69645 3.92808,3.23331 -1.42636,-2.03033 -3.75623,-3.02711 -5.99772,-3.84707 -4.37243,-1.53195 -8.96095,-2.3053 -13.53469,-2.94115 -5.05007,-0.60886 -10.12955,-1.0287 -15.21645,-1.10723 2.42314,5.23663 4.76281,10.51251 7.05583,15.80809 6.04434,-0.59167 12.09114,-1.46076 17.9391,-3.13756 2.03767,-0.63092 4.09012,-1.30854 5.93141,-2.40593 0.65548,-0.44439 1.44358,-0.89364 1.67433,-1.70628 0.69723,0.0589 1.39201,0.13996 2.08925,0.25041 0,-0.41981 0.005,-0.83226 0.0344,-1.24228 0.0172,0.40999 0.0295,0.82247 0.0393,1.24228 0.79789,0.0614 1.60067,0.13012 2.39611,0.25287 -0.12275,1.50249 -0.9599,2.86257 -2.09905,3.81759 -1.87812,1.59578 -4.21781,2.48942 -6.5231,3.2677 -6.42977,2.02051 -13.164,2.85032 -19.85648,3.40516 1.78973,4.46083 3.80533,8.86029 5.06234,13.51262 0.50818,2.9166 0.88382,5.86267 0.98446,8.82592 -0.0785,1.62524 -0.16447,3.49109 -1.44358,4.67936 -1.18331,1.12687 -3.00744,0.96235 -4.42889,0.43697 -1.66698,-0.65059 -3.4027,-1.43129 -4.50502,-2.90433 -1.53441,-1.96895 -2.67847,-4.20796 -3.798,-6.42981 -2.78403,-5.7301 -5.21208,-11.62959 -7.51983,-17.56343 -11.05999,-0.29709 -22.22558,-0.9943 -32.9591,-3.86671 -2.61952,-0.73652 -5.23416,-1.61054 -7.58367,-3.00008 -1.31836,-0.82738 -2.67355,-1.88796 -3.12774,-3.4469 -0.43945,-1.4362 0.25533,-2.96816 1.32573,-3.93054 1.77749,-1.6277 4.08276,-2.49679 6.33159,-3.25786 5.78902,-1.84129 11.84318,-2.63181 17.86788,-3.23819 3.30942,-0.23325 6.61883,-0.51804 9.93806,-0.56221 -7.62294,-20.1339 -15.12804,-40.31935 -23.49978,-60.15619 -3.71695,-8.75961 -7.55911,-17.47017 -11.83827,-25.97202 -4.53696,-8.90211 -9.46917,-17.60036 -14.51676,-26.22497 -10.61075,-18.02992 -21.79843,-35.71368 -33.16779,-53.27713 -15.04702,-23.1438 -30.40093,-46.08874 -46.13292,-68.77344 m 114.80328,237.22454 c -4.65972,0.75615 -9.33412,1.64734 -13.75567,3.34133 -1.721,0.70951 -3.54267,1.46078 -4.77508,2.91415 -0.45173,0.50576 -0.48365,1.28399 -0.0123,1.79467 0.88382,1.05073 2.15797,1.6768 3.39286,2.22918 2.80367,1.20544 5.79147,1.90513 8.77436,2.51889 5.53615,1.03849 11.1558,1.67926 16.78521,1.88303 l 0.16449,0.0933 c 3.51809,0.0761 7.04112,0.26267 10.56164,0.15955 -2.13101,-5.43792 -4.1908,-10.90287 -6.2702,-16.36048 -4.97885,0.17922 -9.94052,0.70703 -14.86533,1.42639 m 25.3705,18.45953 c 2.69074,6.62621 5.31029,13.31378 8.75227,19.59627 0.99427,1.57614 1.88791,3.46162 3.72184,4.2055 0.98939,0.41488 2.12362,1.18332 3.21369,0.72177 0.73161,-1.26679 0.54011,-2.81841 0.50572,-4.22022 -0.18413,-1.77746 -0.35844,-3.55737 -0.63341,-5.32258 -0.16449,-1.71363 -0.80034,-3.32166 -1.35273,-4.93466 -1.16124,-3.19648 -2.47472,-6.33647 -3.7857,-9.4716 -0.16203,-0.32164 -0.22341,-0.71936 -0.52292,-0.93292 -3.28977,0.27744 -6.59916,0.28972 -9.89876,0.35844 z" /><path
   style="stroke-width:0.245505"
   id="path839"
   d="m 183.45163,147.17978 c 0.50574,0.005 1.01885,-0.01 1.51968,0.10066 10.72859,2.27829 21.33442,5.29064 31.47871,9.48142 4.23988,1.84374 8.52395,3.7906 12.10832,6.75876 1.34783,1.18088 2.90924,2.75212 2.51644,4.71862 -0.41736,1.77255 -2.29303,2.56307 -3.90109,2.9166 -4.14167,0.84209 -8.40365,0.5843 -12.59197,0.33143 -8.9143,-0.69478 -17.77214,-2.09907 -26.48022,-4.11958 10.63284,0.46401 21.26077,1.49513 31.91571,1.31837 2.60727,-0.2185 5.36184,-0.081 7.7948,-1.20298 -1.47549,-1.76273 -3.44935,-3.00499 -5.39867,-4.18096 -3.5009,-2.02051 -7.18349,-3.70222 -10.88816,-5.31273 -8.53377,-3.67522 -17.27377,-6.84224 -25.95238,-10.15656 -0.68251,-0.29461 -1.39447,-0.5082 -2.12117,-0.65305 z" /><path
   style="stroke-width:0.245505"
   id="path841"
   d="m 192.14252,171.21722 c 6.15728,13.87842 10.85871,28.33869 16.48324,42.43316 1.64488,3.96491 3.26031,7.98629 5.64171,11.58049 0.29706,0.60885 1.07777,0.45419 1.63016,0.61619 8.04521,1.59336 16.00204,3.81516 23.55379,7.04356 3.16211,1.41902 6.35123,2.95834 8.95358,5.29309 0.99185,0.95013 2.04998,2.15063 1.89776,3.62857 -0.0663,1.37483 -1.29627,2.33476 -2.50167,2.75948 -2.46981,0.82981 -5.11388,0.83963 -7.69169,0.82981 -6.06889,-0.11047 -12.08378,-1.04094 -18.05447,-2.06961 3.26522,4.04839 6.45434,8.1606 9.87177,12.08623 6.56236,7.71133 13.54699,15.07895 21.0791,21.8549 3.99437,3.51073 8.12623,6.86924 12.49868,9.90123 4.37246,2.94361 8.9585,5.5607 13.67466,7.9151 9.40774,4.78247 19.21571,8.72772 29.12676,12.33176 7.29397,2.65144 14.6665,5.07703 22.08076,7.37005 1.28154,0.3658 2.53607,0.84702 3.8618,1.04831 -1.2889,0.0982 -2.54343,-0.26021 -3.80779,-0.43455 -11.28834,-2.0033 -22.39746,-4.96412 -33.24389,-8.66386 -9.3022,-3.27995 -18.45219,-7.08529 -27.0326,-11.97821 -8.72527,-5.0034 -16.52006,-11.50193 -23.51942,-18.69769 -9.57717,-9.87423 -17.92927,-20.94407 -24.83288,-32.84372 -1.52459,-0.27988 -3.02708,-0.67269 -4.54922,-0.97466 3.19894,-0.12275 6.39542,0.13749 9.59436,0.15958 4.99849,0.0859 10.00191,0.2406 14.99792,-0.0491 1.62034,-0.1694 3.26768,-0.28724 4.82173,-0.81262 0.0687,-0.26515 -0.007,-0.47383 -0.22341,-0.62604 -2.08434,-1.98614 -4.67933,-3.30696 -7.21049,-4.62287 -7.51493,-3.68995 -15.37355,-6.60164 -23.12662,-9.73675 -0.7046,-0.30688 -1.49019,-0.42472 -2.13341,-0.86172 -2.65394,-2.37404 -4.84137,-5.22681 -6.68512,-8.26617 -4.64005,-7.69168 -7.88318,-16.13953 -10.54446,-24.69293 -1.91248,-6.27512 -3.45917,-12.67054 -4.40927,-19.16416 -0.13017,-0.77825 -0.23819,-1.56632 -0.20137,-2.35685 z" /><path
   style="stroke-width:0.245505"
   id="path843"
   d="m 359.99214,209.01033 c 1.15878,-0.3879 2.25617,0.78807 2.28563,1.89039 0.66043,6.84714 0.92064,13.73112 1.02376,20.61018 0.0491,6.64092 0.0638,13.28921 -0.32898,19.92031 -0.34371,6.11063 -0.89119,12.23108 -2.13347,18.23123 -0.68984,2.90433 -1.36253,5.93387 -3.12528,8.40611 1.20788,-2.7472 1.54177,-5.76201 1.83147,-8.72035 0.5696,-6.37823 0.46891,-12.79084 0.46891,-19.18625 -0.0859,-4.42892 -0.2185,-8.85293 -0.28233,-13.27939 l -0.0982,-0.1694 c -0.0368,-3.36342 -0.2357,-6.72439 -0.37807,-10.08536 -3.69486,8.84801 -8.97077,16.94724 -14.81135,24.51371 -1.43868,1.82656 -2.89944,3.64085 -4.47068,5.35693 5.44534,-8.95358 10.79979,-18.02501 14.80646,-27.73229 1.65471,-4.15886 3.17191,-8.44539 3.57454,-12.93323 0.14487,-1.74554 -0.0466,-3.49354 0.0295,-5.23908 0.25783,-0.71934 0.92069,-1.27663 1.60811,-1.58351 z" /><path
   style="stroke-width:0.245505"
   id="path845"
   d="m 369.58403,247.01457 c 0.38054,-0.59413 0.92556,-1.11705 1.59825,-1.3601 0.94765,-0.29706 1.82904,0.5229 2.13346,1.3601 0.19638,1.12932 0.27251,2.27829 0.31668,3.42725 l 0.0933,0.15713 c 0.72918,12.0224 1.06552,24.09145 0.43455,36.12858 -0.28968,6.2923 -0.82981,12.59197 -2.02297,18.78607 -0.44679,2.16288 -0.97466,4.31844 -1.77255,6.38315 -0.41493,1.00166 -0.85927,2.01805 -1.58351,2.84295 1.01883,-1.95422 1.30361,-4.18341 1.6375,-6.33159 0.86172,-7.2645 0.74634,-14.5953 0.70705,-21.89908 -0.0687,-5.56561 -0.20377,-11.13122 -0.4738,-16.69192 -0.0761,-2.20464 -0.0663,-4.41909 -0.31915,-6.61146 -0.59413,1.92231 -1.57615,3.69977 -2.45015,5.50669 -2.35685,4.6867 -5.14582,9.14508 -8.14096,13.44879 -2.68828,3.79058 -5.4772,7.52962 -8.6246,10.95445 5.26366,-8.5976 10.38242,-17.33268 14.35224,-26.6177 2.02788,-4.97394 3.96492,-10.14674 4.09506,-15.58223 0.0859,-1.29872 -0.27254,-2.622 0.0196,-3.90108 z" /><path
   style="stroke-width:0.245505"
   id="path847"
   d="m 385.68183,290.39049 c 0.43943,-1.56632 2.95586,-1.72099 3.53282,-0.17433 0.65793,1.99105 0.0442,4.11713 -0.35355,6.10327 -0.83961,11.11648 -1.83147,22.28698 -4.43874,33.15305 -0.88382,3.20633 -1.64246,6.58443 -3.62857,9.31939 0.84945,-2.62443 1.18336,-5.37166 1.49513,-8.10168 0.59412,-6.29965 1.00659,-12.61407 1.43377,-18.92602 0.16938,-2.22671 0.35105,-4.45592 0.4468,-6.68757 -2.8994,4.14414 -6.31195,7.9372 -10.10255,11.28589 3.91338,-6.04189 8.09922,-12.02486 10.66969,-18.79833 0.437,-2.36915 0.32652,-4.83157 0.9452,-7.17367 z" /><path
   style="stroke-width:0.245505"
   id="path849"
   d="m 302.0995,320.24639 c -0.0196,-0.85682 0.16203,-1.83641 0.91573,-2.35197 0.76107,-0.26267 1.56142,0.0614 2.17764,0.51802 3.78815,2.77914 8.23916,4.41664 12.59443,6.07871 8.75472,3.21615 17.6936,5.8995 26.58824,8.70319 1.84865,0.51802 3.63591,1.25208 5.52387,1.6277 -2.58517,-0.0319 -5.10651,-0.68989 -7.64995,-1.08022 -8.9143,-1.68171 -17.76723,-3.77342 -26.37956,-6.64092 7.48301,5.735 14.9341,11.52405 22.68227,16.90305 1.36499,0.96977 2.82086,1.81183 4.16132,2.81842 -4.99604,-2.10646 -9.71465,-4.80211 -14.32279,-7.64504 -7.69414,-4.78244 -15.11822,-9.99698 -22.27962,-15.54297 -1.35521,-1.10723 -2.79142,-2.12605 -4.01158,-3.38797 z" /><path
   style="stroke-width:0.245505"
   id="path851"
   d="m 314.72339,338.24684 c 0.98202,-0.45418 1.97386,0.22587 2.73984,0.7979 3.91333,2.73984 8.46012,4.35281 12.8964,6.02964 8.6467,3.14244 17.46526,5.78408 26.23719,8.55095 1.72097,0.49101 3.38795,1.16861 5.15071,1.5074 -1.34049,0.0736 -2.6441,-0.26517 -3.96001,-0.44191 -8.70073,-1.46075 -17.32534,-3.40025 -25.78543,-5.91177 -1.46567,-0.36335 -2.85032,-1.04831 -4.34299,-1.27665 0.15712,0.0859 0.47137,0.25778 0.62849,0.34371 7.28663,5.67117 14.62233,11.29079 22.20597,16.55691 1.35028,0.86663 2.61217,1.89039 4.07787,2.56305 -1.94441,-0.44188 -3.66049,-1.55157 -5.45516,-2.37892 -8.67123,-4.54676 -16.79748,-10.05836 -24.73222,-15.77618 -3.56226,-2.66374 -7.22031,-5.23175 -10.49044,-8.25144 -0.0418,-0.8372 0.135,-1.76766 0.82978,-2.31269 z" /><path
   style="stroke-width:0.245505"
   id="path853"
   d="m 398.83933,379.16713 c 5.71046,6.79068 11.10667,13.83668 16.38013,20.97105 5.77428,7.90284 11.36938,15.9456 16.5397,24.26333 4.02874,6.48868 7.86845,13.11244 11.10912,20.03569 2.42805,5.23416 4.62778,10.63775 5.70309,16.33103 0.39038,1.9714 0.22341,3.99437 0.26026,5.99521 0.0712,4.03859 -2.50907,7.99121 -6.25548,9.52316 -3.51321,1.5074 -7.29399,2.23901 -11.0281,2.96571 -7.86354,1.40677 -15.81546,2.20954 -23.7723,2.83313 -10.79244,0.77089 -21.60202,1.35273 -32.42392,1.31345 -10.32839,-0.0516 -20.66908,0.18413 -30.98279,-0.45418 -6.03455,-0.25533 -12.05432,-0.75616 -18.05201,-1.44848 -5.49933,-0.69969 -11.0232,-1.48529 -16.33594,-3.11053 -2.45996,-0.82247 -5.06968,-1.7333 -6.84223,-3.72432 -1.37729,-1.53196 -1.35274,-3.73659 -1.41902,-5.66872 0.0393,-5.33238 1.70626,-10.48065 3.51563,-15.44229 3.61384,-9.55756 8.46258,-18.58722 13.53717,-27.43524 4.71862,-8.17042 9.79076,-16.13461 15.03721,-23.97606 4.3479,-6.46416 8.81365,-12.84975 13.49789,-19.07329 -10.44626,16.37521 -20.58072,32.98611 -29.42383,50.29424 -2.5287,5.01811 -4.92729,10.10255 -7.0681,15.29988 -1.82165,4.46577 -3.496,9.01253 -4.52957,13.7336 -0.61622,2.94606 -1.07532,6.01979 -0.47874,9.0125 0.14485,0.82735 0.96484,1.25453 1.62034,1.65471 2.20464,1.15635 4.64741,1.76027 7.06073,2.32005 6.60901,1.41166 13.35304,2.03767 20.07989,2.54098 10.47081,0.72424 20.96617,1.07531 31.46153,1.0213 11.39145,0.0417 22.77799,-0.29463 34.15471,-0.85438 8.49695,-0.52293 16.99389,-1.17349 25.44419,-2.24392 4.54676,-0.63831 9.12052,-1.29379 13.52489,-2.64161 1.33803,-0.46401 2.78403,-0.89119 3.78078,-1.95916 1.17843,-1.09002 1.82902,-2.64164 2.01806,-4.21285 0.52538,-4.04839 -0.51556,-8.08943 -1.65716,-11.9463 -2.33476,-7.35779 -5.76447,-14.3056 -9.34146,-21.12328 -4.59343,-8.64916 -9.72204,-17.00126 -14.98074,-25.2576 -6.44945,-10.02158 -13.19594,-19.84917 -20.13393,-29.53681 z" /><path
   style="fill:#44aa00;fill-opacity:0.560117;stroke:#44aa00;stroke-width:1px;stroke-linecap:butt;stroke-linejoin:miter;stroke-opacity:0.694118;filter:url(#filter885)"
   d="m 326.03274,304.75765 -81.46075,-48.27303 30.17065,-15.08532 -50.68669,-28.96382 -15.68873,-30.77406 40.42866,-7.84437 -21.11945,-29.56723 -34.99795,-9.0512 -22.32628,-78.443677 -17.49897,-15.688736 109.21774,82.667573 52.49692,80.25391 23.5331,61.54812 16.89557,-22.32628 -3.87944,49.90605 16.55111,-14.30468 -2.41365,45.25596 15.68873,-6.63754 -8.44778,23.53311"
   id="path844" /><path
   transform="matrix(1.1009129,0,0,1.1144165,-33.301584,-45.27281)"
   id="path900"
   d="m 341.85221,398.52626 -20.30001,33.29202 -11.36801,31.66802 60.90004,5.278 59.68204,-5.278 -12.58601,-38.16403 -19.89401,-29.63802"
   style="fill:#000000;fill-opacity:0.55425221;stroke:none;stroke-width:1px;stroke-linecap:butt;stroke-linejoin:miter;stroke-opacity:1;filter:url(#filter1021)" /><path
   id="path942"
   d="m 354.57143,366.96607 -22.04714,-17.79914 29.22324,5.9658"
   style="fill:#44a900;fill-opacity:0.560784;stroke:none;stroke-width:1px;stroke-linecap:butt;stroke-linejoin:miter;stroke-opacity:1;filter:url(#filter980)" /><path
   transform="matrix(1.2681957,0,0,1,-83.464942,12)"
   style="fill:#44a900;fill-opacity:0.560784;stroke:none;stroke-width:1px;stroke-linecap:butt;stroke-linejoin:miter;stroke-opacity:1;filter:url(#filter980-6)"
   d="m 340.71349,336.82237 -22.04714,-17.79914 29.22324,5.9658"
   id="path942-7" /></svg>
