<?xml version="1.0" encoding="UTF-8" standalone="no"?>
<svg
   xmlns:dc="http://purl.org/dc/elements/1.1/"
   xmlns:cc="http://creativecommons.org/ns#"
   xmlns:rdf="http://www.w3.org/1999/02/22-rdf-syntax-ns#"
   xmlns:svg="http://www.w3.org/2000/svg"
   xmlns="http://www.w3.org/2000/svg"
   xmlns:sodipodi="http://sodipodi.sourceforge.net/DTD/sodipodi-0.dtd"
   xmlns:inkscape="http://www.inkscape.org/namespaces/inkscape"
   version="1.1"
   x="0"
   y="0"
   width="603.20532"
   height="538.11908"
   viewBox="0 0 603.20529 538.11906"
   id="svg896"
   sodipodi:docname="research.svg"
   inkscape:version="1.0 (4035a4f, 2020-05-01)">
  <metadata
     id="metadata902">
    <rdf:RDF>
      <cc:Work
         rdf:about="">
        <dc:format>image/svg+xml</dc:format>
        <dc:type
           rdf:resource="http://purl.org/dc/dcmitype/StillImage" />
        <dc:title />
      </cc:Work>
    </rdf:RDF>
  </metadata>
  <defs
     id="defs900">
    <filter
       inkscape:collect="always"
       style="color-interpolation-filters:sRGB"
       id="filter2077"
       x="-0.26159588"
       width="1.5231918"
       y="-0.26159588"
       height="1.5231918">
      <feGaussianBlur
         inkscape:collect="always"
         stdDeviation="2.3239524"
         id="feGaussianBlur2079" />
    </filter>
    <filter
       inkscape:collect="always"
       style="color-interpolation-filters:sRGB"
       id="filter2081"
       x="-0.35269293"
       width="1.7053858"
       y="-0.35267061"
       height="1.7053412">
      <feGaussianBlur
         inkscape:collect="always"
         stdDeviation="2.3239524"
         id="feGaussianBlur2083" />
    </filter>
    <filter
       inkscape:collect="always"
       style="color-interpolation-filters:sRGB"
       id="filter2085"
       x="-0.25694412"
       width="1.5138882"
       y="-0.25693226"
       height="1.5138645">
      <feGaussianBlur
         inkscape:collect="always"
         stdDeviation="2.3239524"
         id="feGaussianBlur2087" />
    </filter>
    <filter
       inkscape:collect="always"
       style="color-interpolation-filters:sRGB"
       id="filter2089"
       x="-0.3288224"
       width="1.6576447"
       y="-0.32884181"
       height="1.6576836">
      <feGaussianBlur
         inkscape:collect="always"
         stdDeviation="2.3239524"
         id="feGaussianBlur2091" />
    </filter>
    <filter
       inkscape:collect="always"
       style="color-interpolation-filters:sRGB"
       id="filter2093"
       x="-0.43492559"
       width="1.8698512"
       y="-0.43492559"
       height="1.8698512">
      <feGaussianBlur
         inkscape:collect="always"
         stdDeviation="2.3239524"
         id="feGaussianBlur2095" />
    </filter>
    <filter
       inkscape:collect="always"
       style="color-interpolation-filters:sRGB"
       id="filter2097"
       x="-0.44230655"
       width="1.8846132"
       y="-0.44230655"
       height="1.8846132">
      <feGaussianBlur
         inkscape:collect="always"
         stdDeviation="2.3239524"
         id="feGaussianBlur2099" />
    </filter>
    <filter
       inkscape:collect="always"
       style="color-interpolation-filters:sRGB"
       id="filter2101"
       x="-0.4363547"
       width="1.8727094"
       y="-0.43638885"
       height="1.8727777">
      <feGaussianBlur
         inkscape:collect="always"
         stdDeviation="2.3239524"
         id="feGaussianBlur2103" />
    </filter>
    <filter
       inkscape:collect="always"
       style="color-interpolation-filters:sRGB"
       id="filter2105"
       x="-0.22772685"
       width="1.4554538"
       y="-0.22770825"
       height="1.4554164">
      <feGaussianBlur
         inkscape:collect="always"
         stdDeviation="2.3239524"
         id="feGaussianBlur2107" />
    </filter>
    <filter
       inkscape:collect="always"
       style="color-interpolation-filters:sRGB"
       id="filter2109"
       x="-0.30116013"
       width="1.6023203"
       y="-0.3011764"
       height="1.6023529">
      <feGaussianBlur
         inkscape:collect="always"
         stdDeviation="2.3239524"
         id="feGaussianBlur2111" />
    </filter>
    <filter
       height="1.3062962"
       y="-0.15314811"
       width="1.3063213"
       x="-0.15316064"
       id="filter3260"
       style="color-interpolation-filters:sRGB"
       inkscape:collect="always">
      <feGaussianBlur
         id="feGaussianBlur3262"
         stdDeviation="1.563004"
         inkscape:collect="always" />
    </filter>
    <filter
       height="1.3490716"
       y="-0.1745358"
       width="1.3490716"
       x="-0.17453581"
       id="filter3264"
       style="color-interpolation-filters:sRGB"
       inkscape:collect="always">
      <feGaussianBlur
         id="feGaussianBlur3266"
         stdDeviation="1.563004"
         inkscape:collect="always" />
    </filter>
    <filter
       height="1.4188861"
       y="-0.20944303"
       width="1.4188861"
       x="-0.20944305"
       id="filter3268"
       style="color-interpolation-filters:sRGB"
       inkscape:collect="always">
      <feGaussianBlur
         id="feGaussianBlur3270"
         stdDeviation="1.563004"
         inkscape:collect="always" />
    </filter>
    <filter
       height="1.2720019"
       y="-0.13600096"
       width="1.272002"
       x="-0.13600098"
       id="filter3272"
       style="color-interpolation-filters:sRGB"
       inkscape:collect="always">
      <feGaussianBlur
         id="feGaussianBlur3274"
         stdDeviation="1.563004"
         inkscape:collect="always" />
    </filter>
  </defs>
  <sodipodi:namedview
     inkscape:document-rotation="0"
     pagecolor="#ffffff"
     bordercolor="#666666"
     borderopacity="1"
     objecttolerance="10"
     gridtolerance="10"
     guidetolerance="10"
     inkscape:pageopacity="0"
     inkscape:pageshadow="2"
     inkscape:window-width="1440"
     inkscape:window-height="855"
     id="namedview898"
     showgrid="false"
     inkscape:zoom="0.93206917"
     inkscape:cx="205.89426"
     inkscape:cy="298.63286"
     inkscape:window-x="0"
     inkscape:window-y="23"
     inkscape:window-maximized="1"
     inkscape:current-layer="Layer_2"
     fit-margin-top="0"
     fit-margin-left="0"
     fit-margin-right="0"
     fit-margin-bottom="0" />
  <g
     id="Layer_2"
     transform="translate(154.05843,28.417868)">
    <path
       d="m 137.24,18.519 c -5.106,0 -9.26,-4.154 -9.26,-9.259 0,-5.106 4.154,-9.26 9.26,-9.26 5.106,0 9.26,4.154 9.26,9.26 0,5.105 -4.154,9.259 -9.26,9.259"
       fill="#000000"
       id="path63924"
       style="fill:#ff0000;fill-opacity:0.963563;filter:url(#filter2109)" />
    <path
       d="m 172.638,43.444 c -6.753,0 -12.246,-5.495 -12.246,-12.247 0,-6.752 5.493,-12.247 12.246,-12.247 6.752,0 12.246,5.495 12.246,12.247 0,6.752 -5.494,12.247 -12.246,12.247"
       fill="#000000"
       id="path63722"
       style="fill:#ff0000;fill-opacity:0.963563;filter:url(#filter2105)" />
    <path
       d="m 146.763,57.931 c -3.525,0 -6.391,-2.866 -6.391,-6.39 0,-3.525 2.866,-6.391 6.391,-6.391 3.524,0 6.391,2.866 6.391,6.391 0,3.524 -2.867,6.39 -6.391,6.39"
       fill="#000000"
       id="path64150"
       style="fill:#ff0000;fill-opacity:0.963563;filter:url(#filter2101)" />
    <path
       d="m 82.492,89.847 c 0,-13.129 9.054,-23.811 21.524,-26.541 2.037,-0.464 4.405,-0.709 6.607,-0.709 h 82.264 c 15.643,0 27.896,11.969 27.896,27.25 0,10.709 -6.038,19.799 -15.043,24.239 -1.071,0.545 -2.332,1.045 -3.485,1.449 -1.126,0.395 -2.327,0.86 -3.52,1.11 -0.543,0.131 -1.091,0.25 -1.646,0.356 -1,3.531 -2.599,12.172 -3.13,32.216 -0.406,15.298 0.041,29.398 0.046,29.556 l 0.009,0.22 -0.003,0.221 c -0.006,0.514 -0.344,41.908 15.595,69.655 49.695,86.505 73.169,132.123 84.152,156.726 9.38,21.026 9.475,26.364 9.505,29.364 l 0.006,0.671 c 0.011,1.109 0.011,2.207 0.002,3.303 -0.002,0.222 -0.005,0.471 -0.008,0.693 -0.124,9.88 -1.178,20.401 -10.268,28.413 -9.741,8.586 -27.155,12.42 -56.405,12.42 H 66.81 c -1.07,0 -2.247,-0.006 -3.284,-0.017 C 36.175,480.172 19.666,476.31 10.282,468.04 1.199,460.033 0.139,449.524 0.014,439.65 c -0.003,-0.227 -0.005,-0.479 -0.007,-0.704 -0.009,-1.101 -0.009,-2.202 0.001,-3.315 l 0.005,-0.669 c 0.03,-3.003 0.123,-8.348 9.534,-29.433 10.996,-24.618 34.473,-70.233 84.123,-156.66 16.02,-27.885 15.602,-69.249 15.596,-69.663 l -0.003,-0.219 0.006,-0.221 c 0.008,-0.205 0.452,-14.279 0.047,-29.549 -0.532,-20.069 -2.134,-28.712 -3.136,-32.237 -0.37,-0.07 -0.738,-0.146 -1.102,-0.228 -1.223,-0.231 -2.456,-0.681 -3.609,-1.064 -1.19,-0.394 -2.485,-0.886 -3.588,-1.429 -9.197,-4.38 -15.389,-13.566 -15.389,-24.412 z m 18.293,0 c 0,4.982 3.976,8.76 9.27,8.86 3.196,0.062 6.266,1.398 8.673,3.743 0.966,0.942 1.928,2.133 2.832,3.841 2.814,5.361 5.226,15.837 5.988,40.547 0.487,15.757 0.072,30.34 0.012,32.321 0,0.056 0,0.129 0.001,0.201 0.028,4.736 -0.234,44.425 -16.038,74.962 -0.661,1.279 -1.353,2.548 -2.073,3.803 -8.304,14.456 -29.573,51.484 -49.668,88.72 -0.948,1.755 -1.893,3.511 -2.833,5.266 -26.566,49.529 -35.29,70.434 -37.685,78.558 -0.078,0.257 -0.152,0.531 -0.219,0.762 -0.596,2.106 -0.744,3.249 -0.753,3.862 v 0.671 c 0.002,9.657 0.204,14.931 4.086,18.352 5.907,5.207 20.747,7.841 44.201,7.85 h 170.116 c 23.455,-0.009 38.296,-2.643 44.203,-7.85 3.881,-3.419 4.084,-8.692 4.086,-18.346 v -0.678 c -0.011,-0.63 -0.166,-1.818 -0.803,-4.036 -0.065,-0.217 -0.134,-0.476 -0.209,-0.715 -2.441,-8.201 -11.21,-29.142 -37.636,-78.412 -1.026,-1.916 -2.058,-3.832 -3.092,-5.747 -20.005,-37.048 -41.12,-73.813 -49.398,-88.222 -0.89,-1.55 -1.735,-3.12 -2.535,-4.705 -15.597,-30.868 -15.628,-70.568 -15.595,-74.287 -0.001,-0.056 -0.003,-0.132 -0.006,-0.208 -0.078,-2.606 -0.456,-16.81 0.017,-32.122 0.775,-25.115 3.254,-35.532 6.131,-40.815 0.857,-1.562 1.764,-2.679 2.676,-3.572 0.094,-0.093 0.189,-0.184 0.286,-0.273 2.364,-2.179 5.33,-3.41 8.405,-3.473 5.292,-0.101 9.267,-3.878 9.267,-8.858 0,-5.101 -4.135,-8.957 -9.604,-8.957 h -75.491 c -0.108,0 -7.215,0.026 -7.301,0.073 -5.317,0.096 -9.31,3.886 -9.31,8.884"
       fill="#000000"
       id="path62022"
       style="stroke-width:0.5;stroke-miterlimit:4;stroke-dasharray:none" />
    <path
       d="m 168.518,102.377 c -3.477,0 -6.305,-2.828 -6.305,-6.305 0,-3.477 2.828,-6.305 6.305,-6.305 3.477,0 6.305,2.828 6.305,6.305 0,3.477 -2.828,6.305 -6.305,6.305"
       fill="#000000"
       id="path63310"
       style="fill:#ff0000;fill-opacity:0.963563;filter:url(#filter2097)" />
    <path
       d="m 142.45,125.609 c -3.535,0 -6.412,-2.876 -6.412,-6.412 0,-3.536 2.877,-6.412 6.412,-6.412 3.536,0 6.412,2.876 6.412,6.412 0,3.536 -2.876,6.412 -6.412,6.412"
       fill="#000000"
       id="path63088"
       style="fill:#ff0000;fill-opacity:0.963563;filter:url(#filter2093)" />
    <path
       d="m 159.888,162.061 c -4.676,0 -8.481,-3.804 -8.481,-8.481 0,-4.676 3.805,-8.48 8.481,-8.48 4.676,0 8.481,3.804 8.481,8.48 0,4.677 -3.805,8.481 -8.481,8.481"
       fill="#000000"
       id="path62686"
       style="fill:#ff0000;fill-opacity:0.963563;filter:url(#filter2089)" />
    <path
       d="m 146.763,220.426 c -5.984,0 -10.853,-4.869 -10.853,-10.854 0,-5.985 4.869,-10.854 10.853,-10.854 5.984,0 10.854,4.869 10.854,10.854 0,5.985 -4.87,10.854 -10.854,10.854"
       fill="#000000"
       id="path62440"
       style="fill:#ff0000;fill-opacity:0.963563;filter:url(#filter2085)" />
    <path
       d="m 168.518,260.604 c -4.36,0 -7.907,-3.548 -7.907,-7.907 0,-4.36 3.547,-7.908 7.907,-7.908 4.36,0 7.907,3.548 7.907,7.908 0,4.359 -3.547,7.907 -7.907,7.907"
       fill="#000000"
       id="path62894"
       style="fill:#ff0000;fill-opacity:0.963563;filter:url(#filter2081)" />
    <path
       d="m 133.638,297.733 c -5.878,0 -10.661,-4.782 -10.661,-10.661 0,-5.878 4.783,-10.66 10.661,-10.66 5.877,0 10.66,4.782 10.66,10.66 0,5.879 -4.783,10.661 -10.66,10.661"
       fill="#000000"
       id="path63518"
       style="fill:#ff0000;fill-opacity:0.963563;filter:url(#filter2077)" />
    <path
       d="m 85.245,318.126 c 0.914,-0.871 5.692,-3.962 10.189,-5.043 1.054,-0.253 2.113,-0.386 3.123,-0.362 2.093,0.049 4.32,0.867 6.768,2.043 4.482,2.149 9.751,5.484 16.453,7.398 1.903,0.545 4.201,0.697 6.786,0.558 8.994,-0.478 21.365,-4.485 31.834,-7.568 3.158,-0.93 6.142,-1.775 8.807,-2.413 1.317,-0.316 2.756,-0.522 4.285,-0.63 1.695,-0.12 3.534,-0.117 5.476,-0.011 13.868,0.773 32.369,6.71 39.533,8.843 0.491,0.146 0.927,0.274 1.306,0.381 42.786,77.339 54.35,105.563 56.259,112.692 0.534,1.994 0.418,5.568 0.326,7.951 -0.009,0.19 -0.014,0.375 -0.02,0.555 -0.089,2.214 -1.05,4.355 -2.561,5.8 -0.096,0.086 -0.195,0.196 -0.296,0.277 -0.738,0.662 -1.633,1.187 -2.634,1.507 -9.465,3.032 -23.802,3.557 -34.291,3.557 h -169.9 c -10.466,0 -24.822,-0.523 -34.29,-3.556 -0.993,-0.318 -1.879,-0.84 -2.615,-1.493 -1.695,-1.506 -2.789,-3.823 -2.871,-6.151 -0.158,-4.565 -0.122,-6.896 0.298,-8.486 2.133,-7.947 9.212,-28.539 58.035,-115.85"
       fill="#000000"
       id="path62240"
       style="fill:#ff0000;fill-opacity:0.963563;" />
    <path
       inkscape:transform-center-y="-317.96031"
       inkscape:transform-center-x="-71.29155"
       style="fill:#ff0000;fill-opacity:0.963563;filter:url(#filter3260)"
       id="path63722-2"
       fill="#000000"
       d="m 109.72031,374.50684 c -6.753,0 -12.245996,-5.495 -12.245996,-12.247 0,-6.752 5.492996,-12.247 12.245996,-12.247 6.752,0 12.246,5.495 12.246,12.247 0,6.752 -5.494,12.247 -12.246,12.247" />
    <ellipse
       ry="13.791115"
       rx="13.791113"
       cy="345.71957"
       cx="173.04579"
       id="path2732"
       style="fill:none;fill-opacity:1;stroke:#ffffff;stroke-width:3.618;stroke-miterlimit:4;stroke-dasharray:none;filter:url(#filter3272)" />
    <ellipse
       style="fill:none;fill-opacity:1;stroke:#ffffff;stroke-width:3.307;stroke-miterlimit:4;stroke-dasharray:none;filter:url(#filter3264)"
       id="path2732-1"
       cx="117.72684"
       cy="377.37634"
       rx="10.746246"
       ry="10.746247" />
    <ellipse
       ry="8.9552031"
       rx="8.9552021"
       cy="409.61548"
       cx="194.70255"
       id="path2732-1-6"
       style="fill:none;fill-opacity:1;stroke:#ffffff;stroke-width:2.99;stroke-miterlimit:4;stroke-dasharray:none;filter:url(#filter3268)" />
  </g>
</svg>
