<?xml version="1.0" encoding="UTF-8" standalone="no"?>
<svg
   xmlns:dc="http://purl.org/dc/elements/1.1/"
   xmlns:cc="http://creativecommons.org/ns#"
   xmlns:rdf="http://www.w3.org/1999/02/22-rdf-syntax-ns#"
   xmlns:svg="http://www.w3.org/2000/svg"
   xmlns="http://www.w3.org/2000/svg"
   xmlns:xlink="http://www.w3.org/1999/xlink"
   xmlns:sodipodi="http://sodipodi.sourceforge.net/DTD/sodipodi-0.dtd"
   xmlns:inkscape="http://www.inkscape.org/namespaces/inkscape"
   height="420.09952pt"
   version="1.1"
   viewBox="0 0 420.09952 420.09952"
   width="420.09952pt"
   id="svg384"
   sodipodi:docname="thumbnail_2.svg"
   inkscape:version="1.0.1 (c497b03c, 2020-09-10)"
   shape-rendering="crispEdges">
  <metadata
     id="metadata388">
    <rdf:RDF>
      <cc:Work
         rdf:about="">
        <dc:format>image/svg+xml</dc:format>
        <dc:type
           rdf:resource="http://purl.org/dc/dcmitype/StillImage" />
        <dc:title></dc:title>
      </cc:Work>
    </rdf:RDF>
  </metadata>
  <sodipodi:namedview
     pagecolor="#000000"
     bordercolor="#666666"
     borderopacity="1"
     objecttolerance="10"
     gridtolerance="10"
     guidetolerance="10"
     inkscape:pageopacity="0"
     inkscape:pageshadow="2"
     inkscape:window-width="1440"
     inkscape:window-height="855"
     id="namedview386"
     showgrid="false"
     inkscape:zoom="1.133191"
     inkscape:cx="314.70454"
     inkscape:cy="296.60815"
     inkscape:window-x="0"
     inkscape:window-y="23"
     inkscape:window-maximized="1"
     inkscape:current-layer="svg384"
     fit-margin-top="0"
     fit-margin-left="0"
     fit-margin-right="0"
     fit-margin-bottom="0"
     inkscape:pagecheckerboard="true"
     inkscape:document-rotation="0" />
  <defs
     id="defs4">
    <rect
       x="-40.48901"
       y="118.18798"
       width="123.90916"
       height="81.841019"
       id="rect1215" />
    <style
       type="text/css"
       id="style2">
*{stroke-linecap:butt;stroke-linejoin:round;}
  </style>
    <rect
       x="-40.48901"
       y="118.18798"
       width="170.05193"
       height="101.78344"
       id="rect1215-5" />
    <rect
       x="-40.48901"
       y="118.18798"
       width="123.90916"
       height="81.841019"
       id="rect1484" />
    <rect
       x="-40.48901"
       y="118.18798"
       width="123.90916"
       height="81.841019"
       id="rect1215-5-7" />
    <rect
       x="-40.48901"
       y="118.18798"
       width="123.90916"
       height="81.841019"
       id="rect1516" />
    <defs
       id="defs302">
      <path
         d="M 0,5 C 1.326016,5 2.597899,4.473168 3.535534,3.535534 4.473168,2.597899 5,1.326016 5,0 5,-1.326016 4.473168,-2.597899 3.535534,-3.535534 2.597899,-4.473168 1.326016,-5 0,-5 -1.326016,-5 -2.597899,-4.473168 -3.535534,-3.535534 -4.473168,-2.597899 -5,-1.326016 -5,0 -5,1.326016 -4.473168,2.597899 -3.535534,3.535534 -2.597899,4.473168 -1.326016,5 0,5 Z"
         id="md2e2e88ac0"
         style="stroke:#1f77b4" />
    </defs>
    <defs
       id="defs324">
      <path
         d="M 0,5 C 1.326016,5 2.597899,4.473168 3.535534,3.535534 4.473168,2.597899 5,1.326016 5,0 5,-1.326016 4.473168,-2.597899 3.535534,-3.535534 2.597899,-4.473168 1.326016,-5 0,-5 -1.326016,-5 -2.597899,-4.473168 -3.535534,-3.535534 -4.473168,-2.597899 -5,-1.326016 -5,0 -5,1.326016 -4.473168,2.597899 -3.535534,3.535534 -2.597899,4.473168 -1.326016,5 0,5 Z"
         id="mb7674ba6ab"
         style="stroke:#ff7f0e" />
    </defs>
    <defs
       id="defs346">
      <path
         d="M 0,5 C 1.326016,5 2.597899,4.473168 3.535534,3.535534 4.473168,2.597899 5,1.326016 5,0 5,-1.326016 4.473168,-2.597899 3.535534,-3.535534 2.597899,-4.473168 1.326016,-5 0,-5 -1.326016,-5 -2.597899,-4.473168 -3.535534,-3.535534 -4.473168,-2.597899 -5,-1.326016 -5,0 -5,1.326016 -4.473168,2.597899 -3.535534,3.535534 -2.597899,4.473168 -1.326016,5 0,5 Z"
         id="me99020e1ad"
         style="stroke:#2ca02c" />
    </defs>
    <defs
       id="defs32">
      <path
         d="M 9.421875,54.6875 H 18.40625 V 0 H 9.421875 Z m 0,21.296875 H 18.40625 V 64.59375 H 9.421875 Z"
         id="DejaVuSans-105" />
      <path
         d="M 52,44.1875 Q 55.375,50.25 60.0625,53.125 64.75,56 71.09375,56 q 8.546875,0 13.1875,-5.984375 4.640625,-5.96875 4.640625,-17 V 0 h -9.03125 v 32.71875 q 0,7.859375 -2.796875,11.65625 -2.78125,3.8125 -8.484375,3.8125 -6.984375,0 -11.046875,-4.640625 -4.046875,-4.625 -4.046875,-12.640625 V 0 h -9.03125 v 32.71875 q 0,7.90625 -2.78125,11.6875 -2.78125,3.78125 -8.59375,3.78125 -6.890625,0 -10.953125,-4.65625 -4.046875,-4.65625 -4.046875,-12.625 V 0 h -9.03125 v 54.6875 h 9.03125 v -8.5 q 3.078125,5.03125 7.375,7.421875 Q 29.78125,56 35.6875,56 41.65625,56 45.828125,52.96875 50,49.953125 52,44.1875 Z"
         id="DejaVuSans-109" />
      <path
         d="m 34.28125,27.484375 q -10.890625,0 -15.09375,-2.484375 -4.203125,-2.484375 -4.203125,-8.5 0,-4.78125 3.15625,-7.59375 3.15625,-2.796875 8.5625,-2.796875 7.484375,0 12,5.296875 4.515625,5.296875 4.515625,14.078125 v 2 z m 17.921875,3.71875 V 0 H 43.21875 v 8.296875 q -3.078125,-4.96875 -7.671875,-7.34375 -4.59375,-2.375 -11.234375,-2.375 -8.390625,0 -13.359375,4.71875 Q 6,8.015625 6,15.921875 q 0,9.21875 6.171875,13.90625 6.1875,4.6875 18.4375,4.6875 H 43.21875 v 0.890625 q 0,6.203125 -4.078125,9.59375 -4.078125,3.390625 -11.453125,3.390625 -4.6875,0 -9.140625,-1.125 -4.4375,-1.125 -8.53125,-3.375 v 8.3125 q 4.921875,1.90625 9.5625,2.84375 Q 24.21875,56 28.609375,56 q 11.875,0 17.734375,-6.15625 5.859375,-6.140625 5.859375,-18.640625 z"
         id="DejaVuSans-97" />
      <path
         d="m 45.40625,27.984375 q 0,9.765625 -4.03125,15.125 -4.015625,5.375 -11.296875,5.375 -7.21875,0 -11.25,-5.375 -4.03125,-5.359375 -4.03125,-15.125 0,-9.71875 4.03125,-15.09375 4.03125,-5.375 11.25,-5.375 7.28125,0 11.296875,5.375 4.03125,5.375 4.03125,15.09375 z M 54.390625,6.78125 q 0,-13.953125 -6.203125,-20.765625 -6.1875,-6.8125 -18.984375,-6.8125 -4.734375,0 -8.9375,0.703125 -4.203125,0.703125 -8.15625,2.171875 V -9.1875 q 3.953125,-2.140625 7.8125,-3.15625 3.859375,-1.03125 7.859375,-1.03125 8.84375,0 13.234375,4.609375 4.390625,4.609375 4.390625,13.9375 V 9.625 Q 42.625,4.78125 38.28125,2.390625 33.9375,0 27.875,0 17.828125,0 11.671875,7.65625 q -6.15625,7.671875 -6.15625,20.328125 0,12.6875 6.15625,20.34375 Q 17.828125,56 27.875,56 q 6.0625,0 10.40625,-2.390625 4.34375,-2.390625 7.125,-7.21875 V 54.6875 h 8.984375 z"
         id="DejaVuSans-103" />
      <path
         d="m 56.203125,29.59375 v -4.390625 h -41.3125 q 0.59375,-9.28125 5.59375,-14.140625 5,-4.859375 13.9375,-4.859375 5.171875,0 10.03125,1.265625 4.859375,1.265625 9.65625,3.8125 v -8.5 q -4.84375,-2.046875 -9.921875,-3.125 -5.078125,-1.078125 -10.296875,-1.078125 -13.09375,0 -20.734375,7.609375 -7.640625,7.625 -7.640625,20.625 0,13.421875 7.25,21.296875 Q 20.015625,56 32.328125,56 q 11.03125,0 17.453125,-7.109375 6.421875,-7.09375 6.421875,-19.296875 z m -8.984375,2.640625 q -0.09375,7.359375 -4.125,11.75 -4.03125,4.40625 -10.671875,4.40625 -7.515625,0 -12.03125,-4.25 -4.515625,-4.25 -5.203125,-11.96875 z"
         id="DejaVuSans-101" />
      <path
         id="DejaVuSans-32"
         d="" />
      <path
         d="m 44.28125,53.078125 v -8.5 Q 40.484375,46.53125 36.375,47.5 q -4.09375,0.984375 -8.5,0.984375 -6.6875,0 -10.03125,-2.046875 Q 14.5,44.390625 14.5,40.28125 q 0,-3.125 2.390625,-4.90625 2.390625,-1.78125 9.625,-3.390625 l 3.078125,-0.6875 Q 39.15625,29.25 43.1875,25.515625 47.21875,21.78125 47.21875,15.09375 q 0,-7.625 -6.03125,-12.078125 -6.03125,-4.4375 -16.578125,-4.4375 -4.390625,0 -9.15625,0.859375 Q 10.6875,0.296875 5.421875,2 v 9.28125 q 4.984375,-2.59375 9.8125,-3.890625 4.828125,-1.28125 9.578125,-1.28125 6.34375,0 9.75,2.171875 3.421875,2.171875 3.421875,6.125 0,3.65625 -2.46875,5.609375 -2.453125,1.953125 -10.8125,3.765625 l -3.125,0.734375 q -8.34375,1.75 -12.0625,5.390625 -3.703125,3.640625 -3.703125,9.984375 0,7.71875 5.46875,11.90625 Q 16.75,56 26.8125,56 q 4.96875,0 9.359375,-0.734375 4.40625,-0.71875 8.109375,-2.1875 z"
         id="DejaVuSans-115" />
      <path
         d="M 5.515625,54.6875 H 48.1875 V 46.484375 L 14.40625,7.171875 H 48.1875 V 0 H 4.296875 v 8.203125 l 33.796875,39.3125 H 5.515625 Z"
         id="DejaVuSans-122" />
    </defs>
    <defs
       id="defs279">
      <path
         d="m 41.109375,46.296875 q -1.515625,0.875 -3.296875,1.28125 Q 36.03125,48 33.890625,48 26.265625,48 22.1875,43.046875 18.109375,38.09375 18.109375,28.8125 V 0 h -9.03125 v 54.6875 h 9.03125 v -8.5 q 2.84375,4.984375 7.375,7.390625 Q 30.03125,56 36.53125,56 q 0.921875,0 2.046875,-0.125 1.125,-0.109375 2.484375,-0.359375 z"
         id="DejaVuSans-114" />
      <path
         d="M 8.5,21.578125 V 54.6875 h 8.984375 V 21.921875 q 0,-7.765625 3.015625,-11.65625 3.03125,-3.875 9.09375,-3.875 7.265625,0 11.484375,4.640625 4.234375,4.640625 4.234375,12.65625 v 31 h 8.984375 V 0 H 45.3125 V 8.40625 Q 42.046875,3.421875 37.71875,1 33.40625,-1.421875 27.6875,-1.421875 18.265625,-1.421875 13.375,4.4375 8.5,10.296875 8.5,21.578125 Z M 31.109375,56 Z"
         id="DejaVuSans-117" />
      <path
         d="M 54.890625,33.015625 V 0 H 45.90625 v 32.71875 q 0,7.765625 -3.03125,11.609375 -3.03125,3.859375 -9.078125,3.859375 -7.28125,0 -11.484375,-4.640625 -4.203125,-4.625 -4.203125,-12.640625 V 0 h -9.03125 v 54.6875 h 9.03125 v -8.5 q 3.234375,4.9375 7.59375,7.375 4.375,2.4375 10.09375,2.4375 9.421875,0 14.25,-5.828125 4.84375,-5.828125 4.84375,-17.15625 z"
         id="DejaVuSans-110" />
      <path
         d="M 18.3125,70.21875 V 54.6875 h 18.5 v -6.984375 h -18.5 v -29.6875 q 0,-6.6875 1.828125,-8.59375 1.828125,-1.90625 7.453125,-1.90625 H 36.8125 V 0 H 27.59375 Q 17.1875,0 13.234375,3.875 9.28125,7.765625 9.28125,18.015625 v 29.6875 H 2.6875 V 54.6875 h 6.59375 v 15.53125 z"
         id="DejaVuSans-116" />
    </defs>
  </defs>
  <rect
     style="fill:#ffffff;fill-opacity:1;stroke:#000000;stroke-width:2.83950001;stroke-opacity:1;stroke-miterlimit:4;stroke-dasharray:none"
     id="rect2069"
     width="343.24002"
     height="348.64001"
     x="59.709766"
     y="18.649765" />
  <g
     id="line2d_1"
     transform="translate(-7.4502353,-2.950235)">
    <path
       clip-path="url(#p384c665021)"
       d="M 134.76788,370.24 V 21.6"
       style="fill:none;stroke:#808080;stroke-width:0.8;stroke-dasharray:2.96, 1.28;stroke-dashoffset:0"
       id="path12" />
  </g>
  <g
     id="line2d_2"
     transform="translate(-7.4502353,-2.950235)">
    <path
       clip-path="url(#p384c665021)"
       d="M 238.78,370.24 V 21.6"
       style="fill:none;stroke:#808080;stroke-width:0.8;stroke-dasharray:2.96, 1.28;stroke-dashoffset:0"
       id="path16" />
  </g>
  <g
     id="line2d_3"
     transform="translate(-7.4502353,-2.950235)">
    <path
       clip-path="url(#p384c665021)"
       d="M 342.79212,370.24 V 21.6"
       style="fill:none;stroke:#808080;stroke-width:0.8;stroke-dasharray:2.96, 1.28;stroke-dashoffset:0"
       id="path20" />
  </g>
  <g
     transform="matrix(0.29431294,0,0,-0.29431294,152.09024,405.08909)"
     id="g54">
    <use
       xlink:href="#DejaVuSans-105"
       id="use34"
       x="0"
       y="0"
       width="100%"
       height="100%" />
    <use
       x="27.783203"
       xlink:href="#DejaVuSans-109"
       id="use36"
       y="0"
       width="100%"
       height="100%" />
    <use
       x="125.19531"
       xlink:href="#DejaVuSans-97"
       id="use38"
       y="0"
       width="100%"
       height="100%" />
    <use
       x="186.47461"
       xlink:href="#DejaVuSans-103"
       id="use40"
       y="0"
       width="100%"
       height="100%" />
    <use
       x="249.95117"
       xlink:href="#DejaVuSans-101"
       id="use42"
       y="0"
       width="100%"
       height="100%" />
    <use
       x="311.47461"
       xlink:href="#DejaVuSans-32"
       id="use44"
       y="0"
       width="100%"
       height="100%" />
    <use
       x="343.26172"
       xlink:href="#DejaVuSans-115"
       id="use46"
       y="0"
       width="100%"
       height="100%" />
    <use
       x="395.36133"
       xlink:href="#DejaVuSans-105"
       id="use48"
       y="0"
       width="100%"
       height="100%" />
    <use
       x="423.14453"
       xlink:href="#DejaVuSans-122"
       id="use50"
       y="0"
       width="100%"
       height="100%" />
    <use
       x="475.63477"
       xlink:href="#DejaVuSans-101"
       id="use52"
       y="0"
       width="100%"
       height="100%" />
  </g>
  <g
     id="line2d_4"
     transform="translate(-7.4502353,-2.950235)">
    <path
       clip-path="url(#p384c665021)"
       d="M 67.16,350.51759 H 410.4"
       style="fill:none;stroke:#808080;stroke-width:0.8;stroke-dasharray:2.96, 1.28;stroke-dashoffset:0"
       id="path58" />
  </g>
  <g
     id="line2d_5"
     transform="translate(-7.4502353,-2.950235)">
    <path
       clip-path="url(#p384c665021)"
       d="M 67.16,264.65345 H 410.4"
       style="fill:none;stroke:#808080;stroke-width:0.8;stroke-dasharray:2.96, 1.28;stroke-dashoffset:0"
       id="path62" />
  </g>
  <g
     id="line2d_6"
     transform="translate(-7.4502353,-2.950235)">
    <path
       clip-path="url(#p384c665021)"
       d="M 67.16,178.78931 H 410.4"
       style="fill:none;stroke:#808080;stroke-width:0.8;stroke-dasharray:2.96, 1.28;stroke-dashoffset:0"
       id="path66" />
  </g>
  <g
     id="line2d_7"
     transform="translate(-7.4502353,-2.950235)">
    <path
       clip-path="url(#p384c665021)"
       d="M 67.16,92.925168 H 410.4"
       style="fill:none;stroke:#808080;stroke-width:0.8;stroke-dasharray:2.96, 1.28;stroke-dashoffset:0"
       id="path70" />
  </g>
  <g
     id="line2d_8"
     transform="translate(-7.4502353,-2.950235)">
    <defs
       id="defs75">
      <path
         d="M 0,0 H -2"
         id="m3780890304"
         style="stroke:#000000;stroke-width:0.6" />
    </defs>
    <g
       id="g79">
      <use
         style="stroke:#000000;stroke-width:0.6"
         x="67.160004"
         xlink:href="#m3780890304"
         y="369.56644"
         id="use77"
         width="100%"
         height="100%" />
    </g>
  </g>
  <g
     id="line2d_9"
     transform="translate(-7.4502353,-2.950235)">
    <g
       id="g85">
      <use
         style="stroke:#000000;stroke-width:0.6"
         x="67.160004"
         xlink:href="#m3780890304"
         y="363.81812"
         id="use83"
         width="100%"
         height="100%" />
    </g>
  </g>
  <g
     id="line2d_10"
     transform="translate(-7.4502353,-2.950235)">
    <g
       id="g91">
      <use
         style="stroke:#000000;stroke-width:0.6"
         x="67.160004"
         xlink:href="#m3780890304"
         y="358.83868"
         id="use89"
         width="100%"
         height="100%" />
    </g>
  </g>
  <g
     id="line2d_11"
     transform="translate(-7.4502353,-2.950235)">
    <g
       id="g97">
      <use
         style="stroke:#000000;stroke-width:0.6"
         x="67.160004"
         xlink:href="#m3780890304"
         y="354.4465"
         id="use95"
         width="100%"
         height="100%" />
    </g>
  </g>
  <g
     id="line2d_12"
     transform="translate(-7.4502353,-2.950235)">
    <g
       id="g103">
      <use
         style="stroke:#000000;stroke-width:0.6"
         x="67.160004"
         xlink:href="#m3780890304"
         y="324.66992"
         id="use101"
         width="100%"
         height="100%" />
    </g>
  </g>
  <g
     id="line2d_13"
     transform="translate(-7.4502353,-2.950235)">
    <g
       id="g109">
      <use
         style="stroke:#000000;stroke-width:0.6"
         x="67.160004"
         xlink:href="#m3780890304"
         y="309.54999"
         id="use107"
         width="100%"
         height="100%" />
    </g>
  </g>
  <g
     id="line2d_14"
     transform="translate(-7.4502353,-2.950235)">
    <g
       id="g115">
      <use
         style="stroke:#000000;stroke-width:0.6"
         x="67.160004"
         xlink:href="#m3780890304"
         y="298.82224"
         id="use113"
         width="100%"
         height="100%" />
    </g>
  </g>
  <g
     id="line2d_15"
     transform="translate(-7.4502353,-2.950235)">
    <g
       id="g121">
      <use
         style="stroke:#000000;stroke-width:0.6"
         x="67.160004"
         xlink:href="#m3780890304"
         y="290.50113"
         id="use119"
         width="100%"
         height="100%" />
    </g>
  </g>
  <g
     id="line2d_16"
     transform="translate(-7.4502353,-2.950235)">
    <g
       id="g127">
      <use
         style="stroke:#000000;stroke-width:0.6"
         x="67.160004"
         xlink:href="#m3780890304"
         y="283.7023"
         id="use125"
         width="100%"
         height="100%" />
    </g>
  </g>
  <g
     id="line2d_17"
     transform="translate(-7.4502353,-2.950235)">
    <g
       id="g133">
      <use
         style="stroke:#000000;stroke-width:0.6"
         x="67.160004"
         xlink:href="#m3780890304"
         y="277.95398"
         id="use131"
         width="100%"
         height="100%" />
    </g>
  </g>
  <g
     id="line2d_18"
     transform="translate(-7.4502353,-2.950235)">
    <g
       id="g139">
      <use
         style="stroke:#000000;stroke-width:0.6"
         x="67.160004"
         xlink:href="#m3780890304"
         y="272.97455"
         id="use137"
         width="100%"
         height="100%" />
    </g>
  </g>
  <g
     id="line2d_19"
     transform="translate(-7.4502353,-2.950235)">
    <g
       id="g145">
      <use
         style="stroke:#000000;stroke-width:0.6"
         x="67.160004"
         xlink:href="#m3780890304"
         y="268.58237"
         id="use143"
         width="100%"
         height="100%" />
    </g>
  </g>
  <g
     id="line2d_20"
     transform="translate(-7.4502353,-2.950235)">
    <g
       id="g151">
      <use
         style="stroke:#000000;stroke-width:0.6"
         x="67.160004"
         xlink:href="#m3780890304"
         y="238.80577"
         id="use149"
         width="100%"
         height="100%" />
    </g>
  </g>
  <g
     id="line2d_21"
     transform="translate(-7.4502353,-2.950235)">
    <g
       id="g157">
      <use
         style="stroke:#000000;stroke-width:0.6"
         x="67.160004"
         xlink:href="#m3780890304"
         y="223.68584"
         id="use155"
         width="100%"
         height="100%" />
    </g>
  </g>
  <g
     id="line2d_22"
     transform="translate(-7.4502353,-2.950235)">
    <g
       id="g163">
      <use
         style="stroke:#000000;stroke-width:0.6"
         x="67.160004"
         xlink:href="#m3780890304"
         y="212.95808"
         id="use161"
         width="100%"
         height="100%" />
    </g>
  </g>
  <g
     id="line2d_23"
     transform="translate(-7.4502353,-2.950235)">
    <g
       id="g169">
      <use
         style="stroke:#000000;stroke-width:0.6"
         x="67.160004"
         xlink:href="#m3780890304"
         y="204.63699"
         id="use167"
         width="100%"
         height="100%" />
    </g>
  </g>
  <g
     id="line2d_24"
     transform="translate(-7.4502353,-2.950235)">
    <g
       id="g175">
      <use
         style="stroke:#000000;stroke-width:0.6"
         x="67.160004"
         xlink:href="#m3780890304"
         y="197.83817"
         id="use173"
         width="100%"
         height="100%" />
    </g>
  </g>
  <g
     id="line2d_25"
     transform="translate(-7.4502353,-2.950235)">
    <g
       id="g181">
      <use
         style="stroke:#000000;stroke-width:0.6"
         x="67.160004"
         xlink:href="#m3780890304"
         y="192.08983"
         id="use179"
         width="100%"
         height="100%" />
    </g>
  </g>
  <g
     id="line2d_26"
     transform="translate(-7.4502353,-2.950235)">
    <g
       id="g187">
      <use
         style="stroke:#000000;stroke-width:0.6"
         x="67.160004"
         xlink:href="#m3780890304"
         y="187.1104"
         id="use185"
         width="100%"
         height="100%" />
    </g>
  </g>
  <g
     id="line2d_27"
     transform="translate(-7.4502353,-2.950235)">
    <g
       id="g193">
      <use
         style="stroke:#000000;stroke-width:0.6"
         x="67.160004"
         xlink:href="#m3780890304"
         y="182.71823"
         id="use191"
         width="100%"
         height="100%" />
    </g>
  </g>
  <g
     id="line2d_28"
     transform="translate(-7.4502353,-2.950235)">
    <g
       id="g199">
      <use
         style="stroke:#000000;stroke-width:0.6"
         x="67.160004"
         xlink:href="#m3780890304"
         y="152.94162"
         id="use197"
         width="100%"
         height="100%" />
    </g>
  </g>
  <g
     id="line2d_29"
     transform="translate(-7.4502353,-2.950235)">
    <g
       id="g205">
      <use
         style="stroke:#000000;stroke-width:0.6"
         x="67.160004"
         xlink:href="#m3780890304"
         y="137.8217"
         id="use203"
         width="100%"
         height="100%" />
    </g>
  </g>
  <g
     id="line2d_30"
     transform="translate(-7.4502353,-2.950235)">
    <g
       id="g211">
      <use
         style="stroke:#000000;stroke-width:0.6"
         x="67.160004"
         xlink:href="#m3780890304"
         y="127.09394"
         id="use209"
         width="100%"
         height="100%" />
    </g>
  </g>
  <g
     id="line2d_31"
     transform="translate(-7.4502353,-2.950235)">
    <g
       id="g217">
      <use
         style="stroke:#000000;stroke-width:0.6"
         x="67.160004"
         xlink:href="#m3780890304"
         y="118.77285"
         id="use215"
         width="100%"
         height="100%" />
    </g>
  </g>
  <g
     id="line2d_32"
     transform="translate(-7.4502353,-2.950235)">
    <g
       id="g223">
      <use
         style="stroke:#000000;stroke-width:0.6"
         x="67.160004"
         xlink:href="#m3780890304"
         y="111.97402"
         id="use221"
         width="100%"
         height="100%" />
    </g>
  </g>
  <g
     id="line2d_33"
     transform="translate(-7.4502353,-2.950235)">
    <g
       id="g229">
      <use
         style="stroke:#000000;stroke-width:0.6"
         x="67.160004"
         xlink:href="#m3780890304"
         y="106.22569"
         id="use227"
         width="100%"
         height="100%" />
    </g>
  </g>
  <g
     id="line2d_34"
     transform="translate(-7.4502353,-2.950235)">
    <g
       id="g235">
      <use
         style="stroke:#000000;stroke-width:0.6"
         x="67.160004"
         xlink:href="#m3780890304"
         y="101.24626"
         id="use233"
         width="100%"
         height="100%" />
    </g>
  </g>
  <g
     id="line2d_35"
     transform="translate(-7.4502353,-2.950235)">
    <g
       id="g241">
      <use
         style="stroke:#000000;stroke-width:0.6"
         x="67.160004"
         xlink:href="#m3780890304"
         y="96.854095"
         id="use239"
         width="100%"
         height="100%" />
    </g>
  </g>
  <g
     id="line2d_36"
     transform="translate(-7.4502353,-2.950235)">
    <g
       id="g247">
      <use
         style="stroke:#000000;stroke-width:0.6"
         x="67.160004"
         xlink:href="#m3780890304"
         y="67.077484"
         id="use245"
         width="100%"
         height="100%" />
    </g>
  </g>
  <g
     id="line2d_37"
     transform="translate(-7.4502353,-2.950235)">
    <g
       id="g253">
      <use
         style="stroke:#000000;stroke-width:0.6"
         x="67.160004"
         xlink:href="#m3780890304"
         y="51.957561"
         id="use251"
         width="100%"
         height="100%" />
    </g>
  </g>
  <g
     id="line2d_38"
     transform="translate(-7.4502353,-2.950235)">
    <g
       id="g259">
      <use
         style="stroke:#000000;stroke-width:0.6"
         x="67.160004"
         xlink:href="#m3780890304"
         y="41.229805"
         id="use257"
         width="100%"
         height="100%" />
    </g>
  </g>
  <g
     id="line2d_39"
     transform="translate(-7.4502353,-2.950235)">
    <g
       id="g265">
      <use
         style="stroke:#000000;stroke-width:0.6"
         x="67.160004"
         xlink:href="#m3780890304"
         y="32.90871"
         id="use263"
         width="100%"
         height="100%" />
    </g>
  </g>
  <g
     id="line2d_40"
     transform="translate(-7.4502353,-2.950235)">
    <g
       id="g271">
      <use
         style="stroke:#000000;stroke-width:0.6"
         x="67.160004"
         xlink:href="#m3780890304"
         y="26.109879"
         id="use269"
         width="100%"
         height="100%" />
    </g>
  </g>
  <g
     transform="matrix(0,-0.32859644,-0.32859644,0,34.944626,257.91008)"
     id="g295">
    <use
       xlink:href="#DejaVuSans-114"
       id="use281"
       x="0"
       y="0"
       width="100%"
       height="100%" />
    <use
       x="41.113281"
       xlink:href="#DejaVuSans-117"
       id="use283"
       y="0"
       width="100%"
       height="100%" />
    <use
       x="104.49219"
       xlink:href="#DejaVuSans-110"
       id="use285"
       y="0"
       width="100%"
       height="100%" />
    <use
       x="167.87109"
       xlink:href="#DejaVuSans-116"
       id="use287"
       y="0"
       width="100%"
       height="100%" />
    <use
       x="207.08008"
       xlink:href="#DejaVuSans-105"
       id="use289"
       y="0"
       width="100%"
       height="100%" />
    <use
       x="234.86328"
       xlink:href="#DejaVuSans-109"
       id="use291"
       y="0"
       width="100%"
       height="100%" />
    <use
       x="332.27539"
       xlink:href="#DejaVuSans-101"
       id="use293"
       y="0"
       width="100%"
       height="100%" />
  </g>
  <path
     clip-path="url(#p384c665021)"
     d="m 82.761818,312.22903 52.006062,-14.14036 52.00606,-34.7039 52.00606,-46.89312 52.00606,-61.51237 52.00606,-60.688408 52.00606,-56.843599"
     style="fill:none;stroke:#1f77b4;stroke-width:4;stroke-linecap:square"
     id="path299"
     transform="translate(-7.4502353,-2.950235)" />
  <use
     style="fill:#1f77b4;stroke:#1f77b4"
     x="82.761818"
     xlink:href="#md2e2e88ac0"
     y="312.22903"
     id="use304"
     width="100%"
     height="100%"
     transform="translate(-7.4502353,-2.950235)" />
  <use
     style="fill:#1f77b4;stroke:#1f77b4"
     x="134.76788"
     xlink:href="#md2e2e88ac0"
     y="298.08868"
     id="use306"
     width="100%"
     height="100%"
     transform="translate(-7.4502353,-2.950235)" />
  <use
     style="fill:#1f77b4;stroke:#1f77b4"
     x="186.77394"
     xlink:href="#md2e2e88ac0"
     y="263.38477"
     id="use308"
     width="100%"
     height="100%"
     transform="translate(-7.4502353,-2.950235)" />
  <use
     style="fill:#1f77b4;stroke:#1f77b4"
     x="238.78"
     xlink:href="#md2e2e88ac0"
     y="216.49165"
     id="use310"
     width="100%"
     height="100%"
     transform="translate(-7.4502353,-2.950235)" />
  <use
     style="fill:#1f77b4;stroke:#1f77b4"
     x="290.78607"
     xlink:href="#md2e2e88ac0"
     y="154.97928"
     id="use312"
     width="100%"
     height="100%"
     transform="translate(-7.4502353,-2.950235)" />
  <use
     style="fill:#1f77b4;stroke:#1f77b4"
     x="342.79211"
     xlink:href="#md2e2e88ac0"
     y="94.290871"
     id="use314"
     width="100%"
     height="100%"
     transform="translate(-7.4502353,-2.950235)" />
  <use
     style="fill:#1f77b4;stroke:#1f77b4"
     x="394.79819"
     xlink:href="#md2e2e88ac0"
     y="37.447273"
     id="use316"
     width="100%"
     height="100%"
     transform="translate(-7.4502353,-2.950235)" />
  <path
     clip-path="url(#p384c665021)"
     d="m 82.761818,306.02887 52.006062,48.36386 52.00606,-7.71407 52.00606,-0.14488 52.00606,-18.61784 52.00606,-42.39798 52.00606,-53.94745"
     style="fill:none;stroke:#ff7f0e;stroke-width:4;stroke-linecap:square"
     id="path321"
     transform="translate(-7.4502353,-2.950235)" />
  <use
     style="fill:#ff7f0e;stroke:#ff7f0e"
     x="82.761818"
     xlink:href="#mb7674ba6ab"
     y="306.02887"
     id="use326"
     width="100%"
     height="100%"
     transform="translate(-7.4502353,-2.950235)" />
  <use
     style="fill:#ff7f0e;stroke:#ff7f0e"
     x="134.76788"
     xlink:href="#mb7674ba6ab"
     y="354.39273"
     id="use328"
     width="100%"
     height="100%"
     transform="translate(-7.4502353,-2.950235)" />
  <use
     style="fill:#ff7f0e;stroke:#ff7f0e"
     x="186.77394"
     xlink:href="#mb7674ba6ab"
     y="346.67865"
     id="use330"
     width="100%"
     height="100%"
     transform="translate(-7.4502353,-2.950235)" />
  <use
     style="fill:#ff7f0e;stroke:#ff7f0e"
     x="238.78"
     xlink:href="#mb7674ba6ab"
     y="346.53378"
     id="use332"
     width="100%"
     height="100%"
     transform="translate(-7.4502353,-2.950235)" />
  <use
     style="fill:#ff7f0e;stroke:#ff7f0e"
     x="290.78607"
     xlink:href="#mb7674ba6ab"
     y="327.91595"
     id="use334"
     width="100%"
     height="100%"
     transform="translate(-7.4502353,-2.950235)" />
  <use
     style="fill:#ff7f0e;stroke:#ff7f0e"
     x="342.79211"
     xlink:href="#mb7674ba6ab"
     y="285.51794"
     id="use336"
     width="100%"
     height="100%"
     transform="translate(-7.4502353,-2.950235)" />
  <use
     style="fill:#ff7f0e;stroke:#ff7f0e"
     x="394.79819"
     xlink:href="#mb7674ba6ab"
     y="231.57051"
     id="use338"
     width="100%"
     height="100%"
     transform="translate(-7.4502353,-2.950235)" />
  <path
     clip-path="url(#p384c665021)"
     d="m 82.761818,320.68974 52.006062,-1.08388 52.00606,-9.23401 52.00606,-17.72769 52.00606,-35.36192 52.00606,-32.91749 52.00606,-74.75728"
     style="fill:none;stroke:#2ca02c;stroke-width:4;stroke-linecap:square"
     id="path343"
     transform="translate(-7.4502353,-2.950235)" />
  <use
     style="fill:#2ca02c;stroke:#2ca02c"
     x="82.761818"
     xlink:href="#me99020e1ad"
     y="320.68973"
     id="use348"
     width="100%"
     height="100%"
     transform="translate(-7.4502353,-2.950235)" />
  <use
     style="fill:#2ca02c;stroke:#2ca02c"
     x="134.76788"
     xlink:href="#me99020e1ad"
     y="319.60587"
     id="use350"
     width="100%"
     height="100%"
     transform="translate(-7.4502353,-2.950235)" />
  <use
     style="fill:#2ca02c;stroke:#2ca02c"
     x="186.77394"
     xlink:href="#me99020e1ad"
     y="310.37186"
     id="use352"
     width="100%"
     height="100%"
     transform="translate(-7.4502353,-2.950235)" />
  <use
     style="fill:#2ca02c;stroke:#2ca02c"
     x="238.78"
     xlink:href="#me99020e1ad"
     y="292.64417"
     id="use354"
     width="100%"
     height="100%"
     transform="translate(-7.4502353,-2.950235)" />
  <use
     style="fill:#2ca02c;stroke:#2ca02c"
     x="290.78607"
     xlink:href="#me99020e1ad"
     y="257.28223"
     id="use356"
     width="100%"
     height="100%"
     transform="translate(-7.4502353,-2.950235)" />
  <use
     style="fill:#2ca02c;stroke:#2ca02c"
     x="342.79211"
     xlink:href="#me99020e1ad"
     y="224.36475"
     id="use358"
     width="100%"
     height="100%"
     transform="translate(-7.4502353,-2.950235)" />
  <use
     style="fill:#2ca02c;stroke:#2ca02c"
     x="394.79819"
     xlink:href="#me99020e1ad"
     y="149.60747"
     id="use360"
     width="100%"
     height="100%"
     transform="translate(-7.4502353,-2.950235)" />
  <path
     d="M 59.709765,367.28977 V 18.649765"
     style="fill:none;stroke:#000000;stroke-width:0.8;stroke-linecap:square;stroke-linejoin:miter"
     id="path365" />
  <path
     d="M 402.94977,367.28977 V 18.649765"
     style="fill:none;stroke:#000000;stroke-width:0.8;stroke-linecap:square;stroke-linejoin:miter"
     id="path368" />
  <path
     d="M 59.709765,367.28977 H 402.94977"
     style="fill:none;stroke:#000000;stroke-width:0.8;stroke-linecap:square;stroke-linejoin:miter"
     id="path371" />
  <path
     d="M 59.709765,18.649765 H 402.94977"
     style="fill:none;stroke:#000000;stroke-width:0.8;stroke-linecap:square;stroke-linejoin:miter"
     id="path374" />
  <defs
     id="defs382">
    <clipPath
       id="p384c665021">
      <rect
         height="348.64001"
         width="343.23999"
         x="67.160004"
         y="21.6"
         id="rect379" />
    </clipPath>
  </defs>
  <g
     id="g2597"
     transform="translate(-75.614341,-3.2566386)">
    <g
       id="g2591">
      <text
         xml:space="preserve"
         id="text1213"
         style="font-style:normal;font-weight:normal;font-size:30px;line-height:1.25;font-family:sans-serif;letter-spacing:0px;word-spacing:0px;white-space:pre;shape-inside:url(#rect1215);opacity:1;fill:#1f77b4;fill-opacity:1;stroke:none;"
         transform="rotate(-49.421715,191.76794,-185.78201)"><tspan
           x="-40.488281"
           y="145.55741"><tspan
             style="font-weight:bold;stroke-linecap:butt;stroke-linejoin:round">NumPy</tspan></tspan></text>
    </g>
  </g>
  <text
     xml:space="preserve"
     id="text1213-7"
     style="font-style:normal;font-weight:normal;font-size:30px;line-height:1.25;font-family:sans-serif;letter-spacing:0px;word-spacing:0px;white-space:pre;shape-inside:url(#rect1215-5);fill:#2ca02c;fill-opacity:1;stroke:none;stroke-linecap:butt;stroke-linejoin:round;"
     transform="matrix(0.78476383,-0.4643007,0.4643007,0.78476383,186.28464,141.05534)"><tspan
       x="-40.488281"
       y="145.55741"><tspan
         style="font-weight:bold;stroke-linecap:butt;stroke-linejoin:round">PyFFTW</tspan></tspan></text>
  <g
     id="g2603"
     transform="matrix(0.78397838,-0.45263013,0.45263013,0.78397838,206.0921,1.1412678)">
    <text
       xml:space="preserve"
       id="text1213-7-7"
       style="font-style:normal;font-weight:normal;font-size:30px;line-height:1.25;font-family:sans-serif;letter-spacing:0px;word-spacing:0px;white-space:pre;shape-inside:url(#rect1215-5-7);opacity:1;fill:#ff7f0e;fill-opacity:1;stroke:none;stroke-linecap:butt;stroke-linejoin:round;"
       transform="rotate(-0.61042043,17358.534,9742.039)"><tspan
         x="-40.488281"
         y="145.55741"><tspan
           style="font-weight:bold;stroke-linecap:butt;stroke-linejoin:round">cuFFT</tspan></tspan></text>
  </g>
  <rect
     style="fill:#000000;fill-opacity:0;stroke-width:4.3635;stroke-opacity:0.694118"
     id="rect2063"
     width="343.24002"
     height="348.64001"
     x="59.709766"
     y="18.649765" />
</svg>
